<?xml version="1.0" standalone="no"?>
<!DOCTYPE svg PUBLIC "-//W3C//DTD SVG 20010904//EN"
 "http://www.w3.org/TR/2001/REC-SVG-20010904/DTD/svg10.dtd">
<svg version="1.0" xmlns="http://www.w3.org/2000/svg"
 width="370.000000pt" height="370.000000pt" viewBox="0 0 370.000000 370.000000"
 preserveAspectRatio="xMidYMid meet">

<g transform="translate(0.000000,370.000000) scale(0.100000,-0.100000)"
fill="#000000" stroke="none">
<path d="M1595 3433 c-76 -8 -294 -67 -282 -76 8 -6 6 -7 -7 -3 -31 10 -285
-101 -269 -118 4 -4 0 -4 -8 -1 -9 3 -23 -3 -34 -15 -10 -11 -22 -20 -27 -20
-12 0 -101 -60 -110 -74 -4 -6 -2 -16 3 -22 7 -8 6 -15 -2 -20 -7 -4 -9 -3 -6
3 4 6 1 16 -6 22 -10 8 -21 3 -45 -22 -17 -17 -31 -36 -31 -42 0 -5 -5 -11
-13 -13 -9 -2 -8 0 2 7 8 6 10 11 5 11 -19 0 -88 -77 -76 -84 11 -7 13 -6 15
16 0 7 8 13 16 14 31 2 35 5 20 15 -13 9 -12 10 3 5 9 -3 25 -9 34 -13 13 -5
15 -2 10 13 -7 19 -7 19 8 0 18 -23 10 -39 -14 -27 -20 11 -47 -2 -37 -17 4
-7 -1 -9 -14 -7 -11 2 -22 0 -25 -5 -3 -5 -12 -7 -20 -3 -14 5 -20 -8 -16 -31
1 -5 -4 -4 -12 2 -15 13 -9 18 -106 -100 -34 -41 -61 -78 -61 -82 0 -4 -11
-22 -24 -39 -13 -18 -30 -45 -38 -62 -8 -16 -25 -47 -37 -68 -12 -21 -18 -43
-15 -49 4 -6 3 -8 -3 -5 -7 4 -14 -8 -17 -29 -8 -38 0 -74 15 -74 13 0 11 38
-2 42 -6 2 0 23 16 53 14 28 23 39 19 25 -6 -22 -5 -23 10 -11 18 15 21 8 6
-19 -6 -12 -16 -17 -26 -13 -13 5 -14 0 -9 -31 6 -28 3 -41 -10 -56 -16 -18
-16 -20 0 -37 17 -16 17 -16 11 3 -3 11 0 28 9 40 8 10 15 29 15 42 0 15 4 21
12 16 7 -5 9 -2 5 9 -3 9 -1 18 6 20 9 3 9 12 0 39 -16 43 -18 91 -3 68 5 -8
7 -23 4 -32 -3 -10 -1 -18 5 -18 6 0 11 -8 12 -17 0 -14 2 -14 9 3 5 12 13 25
18 28 6 3 8 15 5 25 -3 10 0 22 6 25 7 5 9 0 5 -11 -5 -14 -4 -15 4 -4 7 10 7
22 0 37 -8 18 -6 27 11 45 16 17 24 20 29 12 5 -8 16 -1 35 22 18 23 23 36 15
41 -7 5 -8 3 -3 -6 5 -9 4 -11 -4 -6 -9 6 -9 11 0 22 9 11 14 12 19 4 5 -8 16
0 31 22 13 18 30 38 39 45 8 7 11 13 7 13 -5 0 13 17 40 39 26 21 63 55 82 75
33 34 34 37 18 54 -14 15 -14 19 -3 19 8 0 14 -5 13 -11 -1 -6 7 -11 18 -11
13 0 19 6 17 15 -2 8 0 12 4 8 6 -7 53 21 82 49 10 9 9 14 -5 22 -10 6 -13 11
-7 11 5 0 15 -5 21 -11 7 -7 24 -2 56 19 37 23 44 32 34 42 -10 10 -8 10 9 2
12 -6 25 -8 30 -3 5 4 43 22 84 40 260 114 491 155 752 133 355 -31 657 -163
906 -397 244 -230 380 -470 458 -810 27 -115 27 -472 1 -595 -65 -301 -205
-557 -422 -773 -214 -214 -464 -346 -785 -414 -130 -27 -441 -25 -570 5 -52
12 -103 19 -115 16 -16 -4 -17 -3 -5 5 13 9 12 11 -6 11 -11 0 -60 16 -109 35
-49 19 -98 33 -109 31 -12 -2 -14 -1 -6 2 8 2 -10 16 -44 33 -32 16 -63 26
-69 22 -5 -3 -7 -1 -4 4 9 15 -38 44 -60 37 -11 -4 -14 -3 -7 3 8 5 4 14 -14
27 -14 11 -22 15 -19 9 4 -5 0 -19 -9 -29 -14 -18 -15 -18 -5 3 9 17 7 26 -10
45 -11 12 -18 16 -14 8 4 -8 -2 -5 -13 8 -11 12 -27 22 -36 22 -8 0 -18 5 -22
12 -5 7 -2 8 7 3 8 -5 3 4 -11 19 -13 14 -30 24 -37 22 -7 -3 -13 0 -13 8 0 7
-11 23 -24 35 -18 17 -26 19 -31 10 -6 -8 -4 -10 5 -4 9 6 11 4 5 -5 -6 -9 -4
-11 5 -5 9 6 11 4 5 -5 -4 -7 -2 -16 6 -21 10 -6 10 -9 2 -9 -17 0 -38 40 -34
65 2 11 0 17 -4 13 -8 -8 -35 14 -29 24 6 9 -86 113 -98 110 -5 -1 -7 1 -5 5
3 5 -1 16 -8 26 -13 18 -14 18 -24 0 -13 -22 -15 -8 -1 16 7 13 3 27 -16 55
-14 20 -29 34 -35 31 -5 -4 -9 4 -9 15 0 12 -10 36 -22 53 l-22 31 -8 -24 c-5
-17 -6 -12 -2 14 4 27 -1 55 -17 93 -24 59 -32 61 -36 5 -1 -20 -5 -51 -8 -68
-11 -49 49 -128 70 -94 12 19 25 10 24 -17 -1 -18 -3 -22 -6 -10 -6 23 -25 17
-29 -8 -3 -24 14 -47 29 -38 7 4 8 0 4 -11 -7 -17 40 -92 51 -82 3 3 -1 12 -7
20 -8 10 -9 16 -1 21 9 6 12 -2 14 -48 1 -10 23 -45 50 -78 42 -51 51 -58 65
-47 14 11 14 11 4 -3 -11 -13 -10 -19 6 -33 10 -10 21 -14 23 -9 3 4 3 3 2 -4
-2 -6 9 -24 23 -39 20 -22 27 -24 34 -13 7 11 9 10 9 -5 0 -27 38 -66 58 -59
9 4 13 2 9 -4 -4 -6 9 -23 29 -38 30 -23 37 -25 52 -13 15 11 16 11 4 -3 -11
-15 -2 -23 70 -70 46 -30 88 -54 93 -54 6 0 12 -2 15 -5 20 -21 106 -61 245
-113 22 -8 99 -27 170 -43 118 -26 148 -28 320 -28 154 0 210 4 295 22 326 66
601 210 827 434 248 245 409 564 462 915 14 89 14 344 1 438 -72 517 -400 977
-858 1205 -176 87 -338 138 -504 160 -68 9 -367 11 -433 3z m-768 -341 c-10
-10 -14 -22 -10 -27 5 -4 2 -5 -5 -1 -11 6 -10 12 4 27 9 10 19 19 22 19 3 0
-2 -8 -11 -18z m-119 -162 c-7 -10 -14 -17 -17 -15 -4 4 18 35 25 35 2 0 -1
-9 -8 -20z m-28 -24 c0 -2 -8 -10 -17 -17 -16 -13 -17 -12 -4 4 13 16 21 21
21 13z m-50 -46 c6 -11 8 -20 6 -20 -3 0 -10 9 -16 20 -6 11 -8 20 -6 20 3 0
10 -9 16 -20z m-24 -27 c-4 -9 -1 -23 6 -32 11 -14 11 -14 -2 -4 -8 6 -19 11
-24 10 -14 -3 -17 36 -3 45 16 10 29 -1 23 -19z m-60 -67 c0 -24 -4 -42 -8
-40 -3 2 -5 17 -2 32 l4 27 -20 -25 c-27 -34 -25 -17 2 20 12 17 23 30 24 30
1 0 1 -20 0 -44z m-44 -58 c-7 -7 -12 -8 -12 -2 0 14 12 26 19 19 2 -3 -1 -11
-7 -17z m-26 -27 c0 -11 -3 -18 -7 -15 -4 2 -10 -8 -14 -24 -4 -15 -9 -22 -12
-15 -4 10 22 73 30 73 2 0 3 -9 3 -19z m-6 -65 c-5 -15 -7 -33 -4 -39 5 -9 4
-9 -5 -1 -8 8 -8 18 0 43 6 17 13 30 15 28 3 -2 0 -16 -6 -31z m-46 -1423 c2
-12 0 -20 -5 -18 -4 3 -9 1 -11 -5 -1 -5 -3 13 -4 42 0 41 1 46 9 27 5 -13 10
-34 11 -46z m-14 -53 c0 -5 -4 -10 -10 -10 -5 0 -10 5 -10 10 0 6 5 10 10 10
6 0 10 -4 10 -10z m45 -100 c3 -5 1 -10 -4 -10 -6 0 -11 5 -11 10 0 6 2 10 4
10 3 0 8 -4 11 -10z m78 -20 c10 -16 16 -30 14 -30 -2 0 -13 14 -25 30 -13 17
-19 30 -14 30 4 0 16 -13 25 -30z m-12 -23 l10 -22 -19 22 c-11 12 -23 19 -27
15 -5 -4 -5 -1 -1 6 9 15 23 8 37 -21z m-31 -12 c11 -13 10 -14 -4 -9 -9 3
-16 10 -16 15 0 13 6 11 20 -6z m84 -61 c3 -8 10 -13 15 -9 5 3 12 1 15 -4 8
-13 -19 -8 -37 7 -12 10 -16 10 -20 -2 -4 -9 1 -20 11 -25 9 -6 12 -11 7 -11
-22 0 -34 22 -24 42 12 22 25 23 33 2z m76 -102 c12 -10 10 -10 -12 -1 -15 7
-26 15 -23 19 2 3 -5 12 -15 20 -10 8 -17 17 -14 22 3 5 15 -4 27 -19 12 -15
28 -34 37 -41z m-15 57 c11 -17 -1 -21 -15 -4 -8 9 -8 15 -2 15 6 0 14 -5 17
-11z m55 -99 c8 -5 11 -10 5 -10 -5 0 -17 5 -25 10 -8 5 -10 10 -5 10 6 0 17
-5 25 -10z m130 -96 c0 -8 -19 -13 -24 -6 -3 5 1 9 9 9 8 0 15 -2 15 -3z m-22
-27 c8 -10 6 -13 -11 -14 -12 0 -16 1 -9 4 6 3 10 9 6 14 -8 14 2 11 14 -4z
m57 -17 c-3 -5 -14 -10 -23 -9 -14 0 -13 2 3 9 27 11 27 11 20 0z m160 -110
c-3 -5 -12 -10 -18 -10 -7 0 -6 4 3 10 19 12 23 12 15 0z m30 -40 c3 -6 -1 -7
-9 -4 -18 7 -21 14 -7 14 6 0 13 -4 16 -10z"/>
<path d="M585 2840 c-3 -5 -1 -10 4 -10 6 0 11 5 11 10 0 6 -2 10 -4 10 -3 0
-8 -4 -11 -10z"/>
<path d="M1726 3173 c-4 -49 -9 -116 -11 -150 l-6 -63 41 0 40 0 1 43 c1 23 4
53 8 65 6 22 8 20 28 -22 19 -39 27 -46 52 -46 23 0 35 9 60 48 l32 47 -7 -77
-6 -78 39 0 40 0 7 92 c3 50 6 118 6 150 l0 59 -42 -3 c-39 -3 -43 -6 -70 -58
-30 -55 -55 -88 -61 -79 -8 10 -57 128 -57 137 0 9 -45 22 -75 22 -9 0 -15
-26 -19 -87z"/>
<path d="M1503 3218 c-32 -11 -42 -30 -43 -78 -1 -51 -14 -53 -56 -10 -34 35
-43 39 -69 34 -55 -11 -52 -21 28 -100 42 -42 77 -82 77 -90 0 -8 6 -30 14
-49 14 -33 15 -33 50 -23 26 8 35 16 32 27 -3 9 -10 34 -17 57 -9 33 -8 51 4
95 21 72 31 149 21 148 -5 -1 -23 -6 -41 -11z"/>
<path d="M2257 3167 c-3 -7 -30 -69 -60 -138 l-54 -126 32 -12 c46 -16 50 -15
64 25 10 27 17 34 29 29 91 -35 162 8 162 98 0 41 -32 79 -87 102 -76 33 -81
34 -86 22z m86 -109 c15 -23 1 -48 -26 -48 -34 0 -38 9 -21 42 16 31 31 33 47
6z"/>
<path d="M1007 2990 l-26 -21 77 -119 c42 -66 82 -120 87 -120 6 0 42 21 82
48 71 47 71 47 57 75 -17 32 -24 33 -55 9 -51 -39 -55 -37 -117 55 -31 48 -62
88 -68 90 -6 2 -22 -6 -37 -17z"/>
<path d="M2523 2874 l-87 -115 30 -24 c16 -14 31 -24 34 -24 3 0 44 53 92 117
l87 117 -27 22 c-15 13 -30 23 -34 23 -4 0 -47 -52 -95 -116z"/>
<path d="M785 2780 c-56 -29 -80 -65 -80 -122 1 -82 83 -158 172 -158 37 0 49
6 82 39 52 52 61 95 31 156 -41 85 -132 122 -205 85z m85 -75 c54 -28 75 -79
44 -109 -25 -26 -63 -19 -100 18 -39 39 -43 68 -12 90 28 20 32 20 68 1z"/>
<path d="M1585 2771 c-137 -32 -304 -107 -365 -162 -17 -16 -36 -29 -41 -29
-6 0 -7 -5 -3 -12 5 -7 2 -9 -9 -5 -9 3 -21 -1 -29 -11 -8 -10 -8 -13 -1 -9 6
4 15 2 19 -4 4 -8 3 -9 -4 -5 -7 4 -12 2 -12 -3 0 -6 -3 -10 -7 -9 -26 8 -172
-145 -152 -158 7 -4 9 -3 5 4 -3 6 -2 13 3 16 14 9 7 -22 -9 -37 -10 -10 -12
-9 -6 3 4 8 -6 -1 -23 -19 -22 -26 -27 -37 -18 -43 12 -8 10 -9 -15 -12 -7 0
-13 -14 -12 -29 0 -20 -4 -26 -14 -22 -8 3 -12 0 -9 -7 2 -7 -3 -19 -12 -26
-9 -8 -11 -11 -6 -9 6 3 11 -11 12 -34 2 -38 -10 -59 -22 -39 -3 5 -11 10 -18
10 -8 0 -8 -3 1 -12 9 -9 8 -16 -4 -29 -13 -14 -16 -52 -17 -216 -2 -188 -10
-241 -29 -181 -5 13 -5 6 -2 -17 3 -22 13 -46 22 -54 16 -13 16 -13 0 -8 -14
5 -18 1 -17 -16 0 -12 3 -16 6 -9 8 21 23 13 23 -13 0 -14 5 -25 10 -25 6 0
10 -7 10 -15 0 -8 -3 -14 -7 -12 -10 3 -13 -7 -13 -40 0 -21 3 -24 9 -13 6 8
8 17 5 21 -2 4 2 19 10 33 l14 27 6 -43 c3 -24 4 -55 2 -70 -2 -16 1 -28 5
-28 9 0 22 40 18 56 -2 5 1 20 5 33 6 18 4 28 -8 37 -15 10 -15 12 -1 18 9 3
13 2 10 -4 -3 -6 1 -10 10 -10 12 0 14 7 9 28 -3 15 -10 43 -14 62 -4 19 -8
73 -9 120 -1 47 -4 93 -7 104 -4 11 -2 16 4 12 7 -4 11 11 10 44 0 27 -4 48
-9 44 -5 -3 -6 2 -3 10 3 9 10 16 15 16 5 0 9 11 9 24 0 13 3 26 8 28 9 4 54
112 51 124 -4 21 2 34 14 31 8 -1 11 8 9 28 -2 23 0 26 8 15 5 -8 10 -11 10
-7 0 13 -20 47 -28 47 -9 0 -8 -47 1 -57 13 -12 7 -19 -20 -21 -15 -1 -30 4
-35 10 -6 10 -8 10 -8 1 0 -7 -8 -13 -17 -13 -15 1 -15 3 5 19 12 11 20 26 17
34 -3 7 1 19 9 26 12 10 14 7 13 -25 -1 -21 3 -39 10 -41 15 -5 11 54 -6 85
-9 16 -9 27 -1 40 9 15 10 14 5 -6 -5 -16 -1 -24 12 -29 10 -3 21 -12 26 -19
7 -12 52 -5 46 6 -5 10 22 50 30 45 5 -2 15 3 22 12 10 12 10 14 2 9 -8 -4
-13 -2 -13 8 0 8 5 18 10 21 6 3 10 1 10 -5 0 -10 37 25 64 60 6 9 23 23 38
33 16 9 27 23 25 30 -1 6 6 11 15 11 10 -1 15 2 12 8 -3 5 0 15 6 24 10 11 16
12 27 3 11 -9 17 -9 26 1 10 10 9 11 -2 5 -10 -6 -12 -4 -7 4 5 7 14 10 20 8
7 -3 13 1 13 9 0 15 -9 18 -21 7 -14 -14 -32 -10 -33 8 -1 11 3 19 8 19 6 0 7
-5 3 -11 -5 -8 1 -10 19 -5 14 3 29 2 32 -4 3 -5 11 -10 16 -10 6 0 7 4 4 10
-3 5 0 7 8 4 8 -3 20 2 27 11 7 8 22 15 33 15 21 0 21 0 1 16 -19 15 -19 16 1
9 11 -4 26 -10 34 -13 9 -3 12 -1 7 6 -4 7 -14 12 -22 12 -20 0 -14 32 6 37
12 4 12 3 1 -5 -17 -12 -6 -19 44 -27 l40 -6 -29 17 c-16 9 -25 19 -20 23 5 3
13 11 18 16 6 6 7 3 3 -8 -12 -34 74 -46 95 -14 9 15 275 9 363 -8 38 -7 89
-20 112 -28 23 -8 54 -12 69 -9 19 3 25 1 20 -7 -4 -6 0 -11 9 -11 11 0 15 5
11 15 -3 8 0 15 7 15 8 0 7 4 -3 11 -12 9 -12 10 3 5 10 -3 26 -6 35 -7 11 0
8 -4 -8 -11 l-25 -11 25 -7 c14 -5 32 -8 40 -9 13 -1 13 0 0 9 -8 5 -10 10 -5
10 6 0 17 -5 25 -10 13 -8 13 -10 1 -10 -11 0 -9 -4 5 -15 26 -20 40 -19 23 2
-13 15 -12 15 8 2 16 -9 19 -16 10 -21 -9 -6 -8 -10 3 -18 8 -5 20 -8 25 -6 6
2 11 -4 11 -14 0 -9 -7 -17 -15 -16 -7 1 -16 -5 -18 -12 -4 -9 5 -12 30 -9 18
2 39 7 46 11 16 10 51 -35 45 -56 -6 -20 22 -26 28 -6 3 7 7 5 11 -6 4 -10 3
-15 -3 -11 -6 3 -10 -1 -10 -10 0 -9 -4 -14 -9 -10 -15 9 -24 -16 -11 -28 10
-9 11 -9 4 3 -4 8 6 1 24 -17 34 -34 43 -54 15 -32 -10 7 -7 1 6 -14 14 -15
27 -27 30 -27 3 0 0 5 -6 11 -14 14 -6 39 12 39 7 0 15 5 17 11 3 8 7 7 15 -2
8 -11 7 -17 -3 -27 -8 -7 -14 -8 -14 -2 0 5 -4 10 -9 10 -4 0 -8 -14 -7 -30 1
-19 5 -28 13 -26 7 3 15 1 18 -5 4 -5 3 -9 -2 -8 -20 3 -23 -2 -13 -21 6 -11
16 -17 22 -14 7 5 9 1 5 -9 -8 -21 -3 -21 17 -1 12 12 16 12 16 2 1 -9 5 -8
14 4 11 16 15 13 34 -23 25 -47 26 -49 11 -49 -5 0 -7 5 -4 10 6 9 -8 15 -29
11 -5 -1 -4 4 2 11 7 10 8 18 0 28 -8 12 -9 12 -4 -3 5 -14 2 -16 -13 -7 -14
7 -20 6 -25 -6 -3 -8 -2 -12 4 -9 6 3 10 -1 10 -10 0 -9 -4 -13 -10 -10 -6 4
-7 -1 -3 -11 4 -11 8 -13 11 -6 2 7 13 12 25 11 21 0 21 -1 2 -9 -18 -8 -17
-9 7 -9 20 -1 26 -5 22 -16 -4 -8 -10 -15 -16 -15 -5 0 -6 5 -3 10 3 6 2 10
-3 10 -6 0 -12 -7 -16 -15 -6 -17 12 -75 24 -75 12 0 19 39 9 46 -14 8 0 24
16 17 8 -3 15 -13 15 -22 0 -12 2 -13 9 -3 5 8 7 -8 5 -37 -1 -29 2 -49 7 -45
5 3 9 13 10 22 0 11 3 12 6 4 5 -13 -18 -72 -28 -72 -4 0 -3 -19 3 -42 5 -23
7 -51 5 -62 -3 -16 -5 -14 -6 7 -1 37 -21 25 -21 -14 0 -19 5 -29 15 -29 8 0
15 -8 15 -17 0 -15 2 -16 10 -3 5 8 10 10 10 5 0 -6 -4 -15 -9 -20 -5 -6 -12
-23 -14 -40 -3 -23 -4 -21 -3 8 1 20 -2 37 -6 37 -4 0 -7 -30 -7 -67 1 -38 0
-72 -1 -78 -1 -5 -2 -16 -1 -23 2 -23 18 -4 25 30 5 25 9 29 19 19 8 -8 9 -14
1 -19 -6 -4 -13 -16 -16 -27 -3 -11 -9 -29 -13 -40 -4 -12 -3 -15 2 -8 10 14
9 -91 -1 -129 -5 -16 -12 -28 -18 -28 -5 0 -6 -4 -3 -10 3 -5 2 -10 -4 -10 -6
0 -9 -6 -7 -12 1 -7 1 -10 -1 -5 -3 4 -9 7 -14 7 -6 0 -7 -5 -3 -12 5 -7 3 -8
-6 -3 -11 7 -10 10 1 19 8 6 20 19 28 29 12 15 11 17 -3 17 -9 0 -16 -6 -16
-13 0 -7 -9 -18 -20 -25 -11 -7 -20 -8 -20 -3 0 6 8 15 18 21 15 10 15 10 -3
8 -15 -2 -22 -13 -26 -43 -3 -22 -7 -33 -8 -25 -2 17 -70 -88 -71 -108 0 -7
-4 -10 -10 -7 -6 4 -7 -1 -3 -11 4 -11 2 -15 -4 -11 -6 4 -16 0 -23 -7 -9 -12
-7 -17 9 -26 12 -6 20 -7 19 -3 -4 14 13 53 23 53 6 0 7 -5 3 -11 -4 -8 0 -8
15 0 24 13 29 26 6 18 -8 -4 -17 -2 -20 3 -4 6 3 10 14 10 12 0 21 4 21 10 0
5 -8 6 -17 3 -17 -7 -17 -6 0 11 9 10 14 22 11 28 -4 7 -2 8 4 4 8 -5 10 -2 6
8 -3 9 -2 16 4 16 5 0 13 -7 16 -16 8 -22 8 -26 -3 -19 -17 10 -21 -12 -5 -31
14 -16 15 -17 10 -2 -3 10 -2 17 2 17 19 -3 22 3 12 21 -8 15 -7 25 4 41 9 13
16 17 21 10 3 -6 11 -9 16 -6 5 3 6 -1 3 -9 -3 -9 -10 -16 -16 -16 -5 0 -6 5
-3 10 3 6 1 10 -5 10 -6 0 -10 -14 -8 -33 1 -23 -8 -47 -32 -82 -51 -77 -61
-86 -76 -74 -17 14 -29 -7 -15 -25 18 -21 -125 -149 -150 -136 -22 12 -32 13
-25 2 6 -10 -45 -9 -61 1 -7 5 -9 0 -6 -12 3 -12 11 -17 19 -14 20 7 47 -5 39
-18 -5 -8 -10 -8 -18 0 -8 8 -16 6 -31 -7 -12 -10 -16 -12 -11 -3 6 11 4 13
-10 7 -15 -5 -16 -4 -6 8 16 19 -6 27 -36 13 -21 -9 -21 -11 -5 -23 9 -7 13
-16 8 -21 -5 -4 -11 -2 -13 5 -5 14 -33 16 -33 2 0 -5 8 -10 18 -10 14 0 15
-2 2 -10 -8 -5 -10 -10 -4 -10 5 0 19 7 30 15 25 19 33 19 30 -2 -3 -18 -34
-33 -53 -26 -6 3 -20 0 -30 -6 -14 -8 -15 -10 -3 -11 13 0 13 -1 0 -10 -18
-12 -40 -14 -25 -2 17 12 17 35 0 29 -8 -4 -15 -2 -15 3 0 6 6 10 13 11 6 0 2
4 -10 9 -15 6 -33 5 -55 -5 -28 -12 -31 -20 -6 -16 4 0 18 -5 32 -12 l25 -13
-35 -13 c-19 -7 -32 -17 -28 -22 3 -6 0 -9 -7 -8 -8 1 -27 -3 -44 -10 -31 -13
-75 -7 -75 9 0 6 -15 10 -32 9 -28 0 -30 -2 -13 -9 15 -6 9 -9 -25 -9 -34 0
-40 3 -25 9 17 7 16 9 -10 10 -22 0 -26 3 -15 9 8 5 44 5 80 1 63 -8 97 0 84
21 -7 12 9 12 21 0 6 -5 20 -12 32 -15 18 -6 22 -3 20 13 -2 29 -18 32 -94 15
-100 -22 -296 -27 -341 -9 -19 9 -37 13 -40 10 -12 -11 17 -27 64 -34 29 -5
38 -9 22 -10 -16 0 -32 -9 -38 -20 -8 -16 -3 -25 27 -51 l37 -33 140 6 c106 4
163 12 229 31 396 111 681 426 752 830 27 156 18 295 -30 460 -51 177 -139
319 -277 452 -132 126 -252 195 -434 250 -78 23 -110 27 -254 30 -135 3 -180
0 -245 -15z m345 -52 c0 -5 7 -9 15 -9 8 0 15 -3 15 -8 0 -4 -64 -6 -142 -5
-89 1 -132 -1 -113 -6 28 -8 28 -9 5 -9 -14 -1 -36 5 -50 13 -23 13 -11 15
120 17 l145 2 -125 6 -125 6 85 4 c101 6 170 1 170 -11z m-330 -33 c0 -9 -7
-12 -20 -9 -11 3 -20 9 -20 14 0 5 9 9 20 9 11 0 20 -6 20 -14z m470 6 l-35
-5 30 -8 c22 -6 17 -7 -20 -4 -35 3 -44 2 -30 -5 22 -10 -50 -4 -120 11 -31 6
-25 7 25 3 36 -3 79 0 95 5 17 5 44 9 60 9 28 -1 27 -2 -5 -6z m-583 -8 c-3
-3 -12 -4 -19 -1 -8 3 -5 6 6 6 11 1 17 -2 13 -5z m336 -1 c-13 -2 -33 -2 -45
0 -13 2 -3 4 22 4 25 0 35 -2 23 -4z m-398 -23 c3 -5 -8 -16 -25 -25 -35 -18
-39 -11 -7 16 26 22 24 21 32 9z m691 1 c-9 -14 -45 -20 -53 -9 -3 6 -2 8 3 5
6 -3 16 -2 24 4 19 11 33 12 26 0z m56 -9 c-7 -2 -10 -7 -8 -11 3 -4 -10 -8
-27 -8 -26 -2 -28 0 -12 7 11 5 16 9 10 10 -5 1 -1 5 10 9 11 5 24 6 30 3 5
-3 4 -7 -3 -10z m-895 -26 c0 -8 -6 -12 -15 -9 -11 5 -11 7 0 14 7 5 13 9 14
9 0 0 1 -6 1 -14z m101 -34 c-10 -5 -39 24 -32 31 3 3 13 -2 23 -11 9 -9 13
-18 9 -20z m-43 8 c3 -5 -1 -10 -9 -10 -9 0 -16 5 -16 10 0 6 4 10 9 10 6 0
13 -4 16 -10z m-141 -96 c-5 -18 -3 -25 4 -20 6 3 13 2 16 -3 10 -15 -13 -24
-28 -12 -17 14 -33 -3 -38 -39 -2 -17 -8 -24 -20 -22 -10 2 -18 -3 -18 -11 0
-8 -7 -14 -17 -13 -10 0 -19 -10 -24 -27 -10 -35 -27 -57 -46 -57 -10 0 -13
10 -10 40 2 22 6 43 10 47 12 11 8 25 -5 17 -7 -5 -8 -3 -3 6 6 10 11 10 20
-3 16 -22 35 -22 35 -1 0 13 3 14 13 5 8 -6 17 -8 21 -4 4 4 -3 12 -14 18 -20
11 -20 11 5 35 14 13 25 18 25 12 0 -7 -4 -12 -9 -12 -20 0 -17 -26 4 -36 20
-10 22 -8 19 17 -3 27 17 59 37 59 5 0 8 3 8 8 -3 15 1 22 11 22 6 0 8 -11 4
-26z m1216 16 c0 -5 -2 -10 -4 -10 -3 0 -8 5 -11 10 -3 6 -1 10 4 10 6 0 11
-4 11 -10z m-1339 -63 l-24 -22 19 27 c10 14 21 24 23 22 3 -3 -6 -15 -18 -27z
m1467 -59 c14 -14 16 -48 2 -48 -5 0 -7 7 -3 16 4 10 -1 17 -16 21 -11 3 -21
9 -21 14 0 13 24 11 38 -3z m91 -113 c11 -19 16 -37 10 -40 -5 -4 -9 1 -9 10
0 9 -5 13 -10 10 -6 -4 -7 -11 -4 -17 5 -7 1 -9 -9 -5 -9 3 -17 1 -20 -6 -2
-6 -6 -3 -10 7 -4 9 -3 15 2 12 4 -3 17 1 27 9 16 11 17 16 6 27 -11 11 -12
10 -7 -4 4 -10 3 -18 -3 -18 -15 0 -20 23 -8 37 6 7 12 12 13 13 0 0 10 -16
22 -35z m91 -177 c0 -4 -6 -5 -14 -2 -8 3 -12 12 -9 21 5 12 7 12 14 1 5 -7 9
-16 9 -20z m-1780 -20 c0 -5 -4 -7 -9 -4 -5 4 -11 0 -14 -6 -3 -10 -7 -10 -20
1 -12 9 -17 10 -17 2 0 -7 -4 -9 -10 -6 -5 3 -10 1 -10 -4 0 -6 5 -11 10 -11
6 0 10 -5 10 -11 0 -6 -7 -8 -16 -5 -12 4 -15 2 -10 -9 6 -18 -19 -21 -30 -3
-4 6 -3 8 3 5 6 -4 13 6 16 22 4 17 14 31 24 33 33 7 73 5 73 -4z m-30 -44 c0
-8 -4 -14 -9 -14 -5 0 -12 -12 -14 -27 -2 -16 -4 -7 -3 18 1 33 5 45 14 42 6
-3 12 -11 12 -19z m1836 -120 c-10 -27 -15 -33 -15 -17 -1 24 21 81 26 66 2
-5 -3 -27 -11 -49z m10 -66 c-12 -33 -15 -37 -15 -18 -1 14 4 43 11 65 9 31
13 35 16 18 2 -12 -4 -41 -12 -65z m16 -70 c-7 -7 -9 5 -7 33 4 58 8 62 12 15
3 -21 0 -43 -5 -48z m7 -90 c0 -37 -3 -47 -8 -33 -8 19 -4 85 5 85 2 0 4 -24
3 -52z m-32 10 c-3 -8 -6 -5 -6 6 -1 11 2 17 5 13 3 -3 4 -12 1 -19z m17 -127
c-4 -23 -9 -40 -11 -37 -3 3 -2 23 2 46 4 23 9 39 11 37 3 -2 2 -23 -2 -46z
m-1877 -13 c-3 -8 -6 -5 -6 6 -1 11 2 17 5 13 3 -3 4 -12 1 -19z m3 -69 c0 -6
-4 -7 -10 -4 -5 3 -10 11 -10 16 0 6 5 7 10 4 6 -3 10 -11 10 -16z m1365 -539
c-3 -5 -12 -10 -18 -10 -7 0 -6 4 3 10 19 12 23 12 15 0z m56 -33 c-10 -9 -11
-8 -5 6 3 10 9 15 12 12 3 -3 0 -11 -7 -18z m-181 -27 c0 -5 -4 -10 -10 -10
-5 0 -10 5 -10 10 0 6 5 10 10 10 6 0 10 -4 10 -10z m-83 -26 c-3 -3 -12 -4
-19 -1 -8 3 -5 6 6 6 11 1 17 -2 13 -5z m-90 -20 c-3 -3 -12 -4 -19 -1 -8 3
-5 6 6 6 11 1 17 -2 13 -5z m-193 -10 c26 -10 -7 -34 -51 -36 l-38 -1 45 -7
45 -7 -46 -1 c-32 -2 -51 3 -60 14 -11 13 -11 15 2 13 7 -1 34 1 58 5 31 6 40
11 30 17 -16 10 -8 12 15 3z m164 -51 c-15 -2 -42 -2 -60 0 -18 2 -6 4 27 4
33 0 48 -2 33 -4z"/>
<path d="M1027 2383 c-3 -5 1 -19 9 -33 l14 -25 -3 27 c-3 30 -12 44 -20 31z"/>
<path d="M2779 2770 c-147 -41 -186 -203 -65 -275 28 -17 29 -17 52 8 23 25
23 27 5 37 -59 31 -66 73 -19 119 40 39 79 41 107 5 11 -14 21 -29 23 -35 4
-12 68 9 68 22 0 19 -28 64 -53 86 -32 27 -84 42 -118 33z"/>
<path d="M511 2678 c-9 -14 -10 -23 -2 -31 8 -8 11 -6 11 5 0 9 4 18 10 20 5
2 6 8 2 15 -6 9 -11 6 -21 -9z"/>
<path d="M1680 2598 c0 -5 -12 -5 -26 -2 -17 4 -25 3 -21 -3 4 -6 -4 -8 -20
-5 -16 3 -24 1 -20 -5 4 -6 -4 -8 -21 -6 -21 4 -24 2 -12 -6 13 -9 13 -11 -1
-11 -8 0 -24 -7 -35 -15 -18 -15 -17 -16 13 -10 18 4 39 3 47 -2 10 -6 -1 -8
-32 -7 -76 2 -79 4 -42 24 56 31 26 23 -55 -15 -41 -19 -75 -39 -75 -45 0 -15
11 -12 26 7 7 10 16 15 20 10 9 -8 -26 -59 -44 -65 -7 -2 -12 6 -12 17 0 12
-6 21 -15 21 -16 0 -20 -12 -8 -24 16 -15 10 -33 -8 -29 -20 6 -26 23 -8 23 5
0 7 5 4 10 -9 15 -37 -9 -31 -26 3 -7 1 -16 -5 -19 -5 -4 -9 -3 -8 2 3 20 -2
25 -16 13 -17 -14 -21 -35 -5 -25 15 9 12 -1 -4 -14 -11 -9 -16 -9 -22 0 -5 8
-3 9 6 4 9 -6 11 -4 6 4 -6 9 -13 8 -27 -5 -14 -13 -16 -21 -8 -35 11 -22 25
-24 35 -7 5 8 2 9 -10 5 -11 -4 -15 -3 -11 4 4 6 13 8 20 5 7 -2 18 1 24 7 8
8 11 8 11 -1 0 -7 -5 -12 -11 -12 -5 0 -7 -5 -3 -12 4 -7 3 -8 -4 -4 -16 9
-15 5 4 -33 16 -32 13 -61 -5 -61 -5 0 -11 10 -13 23 -2 14 -11 23 -26 25 -18
3 -21 8 -16 27 3 13 0 26 -6 30 -15 9 -68 -41 -66 -63 0 -9 -5 -16 -11 -15 -7
2 -15 -8 -19 -22 -3 -14 -11 -25 -17 -25 -5 0 -2 -9 7 -19 10 -11 16 -26 13
-33 -3 -8 -6 -5 -6 7 -1 17 -3 18 -12 5 -9 -13 -10 -12 -5 3 9 28 -1 20 -33
-29 -36 -52 -36 -54 -16 -54 8 0 15 5 15 10 0 6 5 10 10 10 6 0 10 -7 10 -15
0 -8 4 -15 10 -15 5 0 7 13 4 30 -4 17 -2 30 4 30 11 0 22 -48 22 -101 0 -39
0 -39 -40 -39 -37 0 -40 2 -40 28 0 19 -5 29 -15 29 -19 0 -30 -36 -16 -50 6
-6 11 -18 11 -27 -1 -12 -4 -11 -15 4 -19 24 -19 9 -1 -23 l13 -24 11 29 c8
22 11 24 11 9 0 -11 -3 -26 -8 -34 -5 -8 -5 -25 1 -42 6 -18 6 -34 0 -46 -8
-14 -10 -10 -9 17 0 20 -9 51 -21 70 -22 35 -31 26 -11 -11 8 -17 6 -24 -10
-38 -18 -16 -21 -31 -23 -109 -1 -51 1 -95 5 -98 4 -4 7 5 7 19 0 15 5 27 10
27 6 0 10 -11 10 -25 0 -34 31 -49 77 -36 20 6 39 8 42 6 2 -3 -2 -5 -10 -5
-12 0 -12 -2 0 -9 11 -7 6 -11 -21 -16 -35 -7 -50 -35 -17 -32 10 1 15 5 12
10 -3 5 5 6 18 2 18 -5 20 -4 10 4 -12 8 -10 11 12 16 15 4 34 5 42 1 9 -3 15
0 15 10 0 12 4 13 21 4 11 -7 23 -9 27 -6 3 3 0 6 -7 6 -7 0 -9 5 -6 10 4 6
11 8 16 4 6 -3 18 1 28 10 23 21 115 36 168 29 23 -3 47 -1 56 3 13 8 13 11
-1 24 -14 13 -15 12 -9 -3 5 -14 0 -17 -28 -17 -19 0 -35 5 -35 11 0 7 10 9
25 7 14 -3 25 -1 25 3 0 10 -64 12 -99 2 -23 -6 -23 -7 -5 -14 13 -5 4 -8 -28
-8 -26 -1 -50 -6 -53 -11 -9 -14 -35 7 -35 26 0 8 1 14 3 14 1 0 17 4 35 9 20
6 32 6 32 0 0 -5 -11 -9 -25 -9 -16 0 -25 -6 -25 -15 0 -19 11 -19 36 0 10 8
29 15 42 15 13 0 31 4 41 9 10 6 33 6 54 1 26 -5 37 -4 37 4 0 6 5 3 11 -6 11
-20 29 -24 29 -7 0 5 -6 7 -12 3 -10 -6 -10 -5 0 8 14 17 6 78 -10 78 -6 0 -8
7 -4 15 3 8 1 15 -3 15 -5 0 -11 -7 -15 -15 -3 -8 -1 -15 4 -15 5 0 7 -7 3
-15 -7 -21 -12 -15 -18 21 -2 16 -7 41 -11 57 -4 16 -2 27 4 27 6 0 8 -8 5
-19 -3 -10 2 -21 10 -24 11 -4 14 4 11 39 -1 26 2 44 8 44 5 0 8 6 5 13 -3 8
8 29 25 48 17 19 28 29 24 22 -4 -7 1 -9 15 -6 13 4 17 9 10 16 -17 17 -58 -1
-71 -33 -12 -29 -30 -41 -30 -20 0 6 5 10 10 10 6 0 10 5 10 11 0 5 -4 8 -9 5
-9 -6 -24 35 -16 43 3 2 5 -2 5 -10 0 -11 2 -11 10 1 8 12 10 12 10 -5 1 -18
2 -18 13 -4 12 17 48 18 116 3 23 -5 36 -3 43 7 8 11 9 10 4 -4 -4 -13 -1 -18
12 -16 9 1 31 -3 47 -10 17 -6 35 -13 41 -15 11 -4 13 32 2 49 -4 7 6 10 25
10 72 -3 67 4 66 -97 0 -51 -3 -87 -6 -80 -2 6 -9 12 -15 12 -7 0 -6 -5 1 -14
12 -14 5 -46 -10 -46 -5 0 -9 -8 -9 -17 1 -17 1 -17 14 -1 7 10 17 14 21 10 5
-4 5 1 2 10 -9 24 10 32 22 10 7 -14 6 -24 -4 -38 -8 -11 -14 -14 -15 -6 0 6
-5 12 -11 12 -6 0 -8 -9 -4 -20 4 -11 2 -20 -4 -20 -6 0 -11 5 -11 10 0 6 -8
10 -17 9 -11 0 -13 -3 -5 -6 19 -7 14 -23 -5 -17 -15 5 -16 4 -3 -5 13 -9 13
-11 -2 -11 -9 0 -19 -4 -22 -9 -3 -4 6 -6 19 -3 14 2 25 8 25 13 0 5 5 9 10 9
23 0 8 -20 -24 -31 -19 -7 -33 -16 -30 -21 3 -4 -1 -8 -8 -8 -10 0 -10 -2 0
-8 18 -12 8 -57 -12 -56 -24 2 -19 -5 10 -16 17 -7 24 -15 20 -25 -3 -10 1
-15 13 -15 21 0 47 -27 37 -37 -4 -4 -10 -3 -14 3 -4 6 -17 16 -30 23 -12 7
-20 16 -17 21 3 6 -1 7 -11 3 -14 -5 -13 -8 7 -24 13 -10 29 -19 34 -19 6 -1
1 -5 -10 -10 -17 -7 -16 -9 10 -10 30 -2 30 -2 5 -10 -21 -7 -22 -8 -5 -9 13
-1 16 -4 8 -9 -20 -13 8 -57 37 -58 46 -2 50 -4 50 -25 0 -13 -4 -18 -12 -13
-7 4 -8 3 -4 -5 11 -17 37 6 29 25 -3 8 0 14 6 14 6 0 11 4 11 10 0 5 -7 7
-15 3 -9 -3 -24 2 -34 11 -10 10 -28 18 -38 19 -19 1 -19 3 -4 39 9 20 18 33
19 28 6 -16 22 -12 22 5 0 8 3 15 8 16 4 0 18 2 32 5 17 3 20 1 12 -5 -8 -4
-13 -11 -12 -15 3 -15 -37 -53 -53 -50 -27 4 -29 -13 -2 -20 14 -4 25 -10 25
-15 0 -5 8 -7 19 -4 10 3 21 1 24 -4 8 -13 -17 -95 -26 -87 -4 4 -7 3 -7 -3 0
-6 7 -14 16 -17 8 -3 12 -2 9 3 -3 5 -1 12 5 16 6 4 7 11 4 17 -5 7 -2 8 5 4
7 -5 10 -14 7 -21 -3 -9 2 -11 16 -7 15 4 17 7 6 14 -9 7 -6 8 10 5 16 -4 22
-2 19 7 -4 9 2 12 16 9 12 -2 31 3 42 11 19 14 18 15 -11 10 -25 -4 -34 0 -48
21 -10 15 -20 24 -23 21 -3 -3 -14 -1 -24 5 -18 9 -18 12 -4 45 10 24 11 33 2
27 -9 -5 -9 -3 0 9 7 8 10 17 7 21 -3 3 15 4 41 2 25 -1 49 -6 52 -9 4 -3 -8
-21 -25 -39 -32 -33 -32 -34 -13 -51 11 -10 22 -13 25 -8 3 6 0 12 -6 15 -7 3
-4 5 7 5 11 0 30 3 41 7 15 5 23 2 27 -9 7 -18 -4 -21 -19 -6 -7 7 -11 6 -11
-4 0 -8 4 -13 9 -10 4 3 8 0 8 -5 0 -17 12 -13 45 15 l30 26 -30 -6 c-18 -4
-25 -3 -17 2 10 7 10 15 2 36 -5 15 -14 25 -18 22 -4 -2 -14 -1 -21 3 -9 6 -5
9 12 9 17 0 29 -8 36 -24 6 -13 16 -23 23 -22 17 4 38 45 39 77 1 26 2 25 9
-4 8 -32 11 -24 15 40 2 22 -2 46 -7 52 -6 7 -8 21 -5 32 2 10 0 26 -5 35 -6
10 -5 23 1 34 9 14 10 13 11 -11 0 -17 4 -26 10 -22 6 4 8 15 5 25 -3 11 -1
29 5 40 10 18 8 24 -7 37 -16 13 -16 14 -1 9 12 -3 15 -1 11 9 -3 8 -8 13 -12
11 -3 -2 -15 2 -26 11 -19 14 -19 14 7 8 20 -5 27 -3 30 12 2 10 -5 26 -16 36
-10 9 -16 17 -11 17 21 0 -21 30 -44 31 -25 1 -25 2 4 9 28 7 29 8 5 10 -23 1
-23 2 -5 10 18 8 18 9 -5 9 -15 1 -30 -7 -38 -19 -14 -23 -9 -27 42 -32 l30
-3 -27 -29 c-21 -22 -24 -32 -16 -42 6 -8 9 -20 6 -27 -3 -8 2 -40 10 -73 18
-70 23 -183 8 -178 -6 3 -9 22 -7 43 3 33 0 40 -17 46 -19 6 -21 15 -23 81 -3
125 -4 136 -22 146 -22 13 -11 27 17 22 l22 -5 -23 13 c-17 8 -22 18 -18 33 4
17 0 21 -21 23 -37 3 -62 29 -60 62 1 16 6 25 12 22 13 -8 -15 28 -39 51 -23
20 -28 21 -46 5 -8 -7 -6 -3 4 10 13 15 26 20 39 16 13 -4 17 -2 13 5 -8 13
-42 15 -50 3 -8 -13 -74 -13 -82 0 -20 32 -6 60 16 33 10 -12 9 -15 -6 -15
-16 0 -17 -2 -4 -10 8 -5 22 -10 30 -10 13 0 13 1 0 10 -12 8 -12 10 -1 10 7
0 1 10 -15 22 -41 32 -68 62 -72 78 -2 8 -7 17 -10 20 -16 12 -10 30 9 30 11
0 18 -4 14 -9 -3 -5 -1 -12 5 -16 5 -3 10 -1 10 5 0 6 5 8 10 5 6 -3 10 -1 10
4 0 6 7 11 16 11 8 0 12 -4 9 -10 -3 -5 -1 -10 4 -10 6 0 11 7 11 16 0 10 6
14 14 11 8 -3 22 1 33 9 16 13 15 14 -12 7 -16 -4 -42 -7 -57 -7 -15 1 -25 -3
-22 -7 3 -5 -2 -9 -10 -9 -9 0 -16 5 -16 10 0 15 -29 12 -46 -5 -9 -8 -11 -15
-6 -15 8 0 12 -14 13 -52 0 -10 7 -18 16 -18 9 0 14 -2 11 -5 -3 -4 -17 -3
-32 1 -26 6 -36 29 -15 36 9 3 9 9 1 25 -9 17 -8 25 7 42 19 22 51 29 51 10 0
-6 6 -9 13 -6 47 19 50 20 43 9 -9 -14 3 -15 24 -2 13 8 13 10 -2 10 -9 0 -19
4 -23 9 -6 11 24 13 164 10 13 -1 26 3 30 9 3 5 17 12 31 16 14 3 19 3 13 0
-7 -3 -13 -12 -13 -20 0 -9 -4 -13 -9 -9 -5 3 -13 1 -16 -5 -4 -6 -3 -10 2 -9
20 3 34 -2 28 -10 -3 -6 4 -15 15 -21 11 -6 18 -15 15 -20 -3 -4 1 -15 9 -23
8 -8 12 -17 9 -21 -4 -3 -1 -6 5 -6 6 0 12 -10 14 -21 2 -12 14 -29 28 -38 25
-15 25 -15 8 5 -9 11 -20 39 -24 62 -5 30 -10 40 -17 33 -7 -7 -14 -4 -22 12
-15 28 -8 42 11 22 26 -25 34 -17 10 10 -25 27 -38 32 -34 14 2 -6 -3 -14 -10
-16 -17 -6 -11 15 11 43 18 21 18 21 58 3 21 -11 39 -26 39 -34 0 -8 5 -15 11
-15 5 0 7 -5 3 -12 -4 -7 -3 -8 4 -4 7 4 13 2 13 -3 3 -26 4 -30 12 -37 4 -4
7 -2 7 5 0 7 5 9 10 6 6 -4 9 -14 8 -23 -2 -12 3 -16 16 -14 12 2 16 -1 11
-10 -6 -10 -5 -11 6 0 18 17 34 15 19 -3 -10 -12 -10 -15 1 -15 11 0 11 -2 1
-8 -9 -6 -6 -15 14 -33 14 -13 29 -23 32 -22 4 1 6 -5 4 -13 -2 -8 5 -14 18
-14 11 0 20 -4 20 -10 0 -5 -4 -10 -10 -10 -5 0 -10 -7 -10 -15 0 -9 6 -12 15
-9 8 4 15 1 15 -6 0 -6 4 -9 9 -6 5 4 12 0 14 -6 4 -9 6 -8 6 2 1 8 8 2 17
-15 8 -16 12 -40 9 -53 -6 -25 -26 -26 -33 -1 -3 11 -2 11 7 -1 8 -12 11 -8
11 19 0 25 -4 32 -14 28 -8 -3 -17 -1 -19 6 -3 7 -8 0 -12 -15 -4 -16 -11 -28
-15 -28 -5 0 -5 14 0 30 5 17 5 30 0 30 -11 0 -23 -68 -14 -82 4 -6 3 -8 -3
-5 -6 4 -14 -4 -17 -18 -4 -14 -11 -25 -17 -25 -8 0 -7 6 2 18 9 11 5 9 -11
-4 -15 -13 -34 -20 -48 -18 -13 2 -21 0 -17 -6 3 -5 19 -8 35 -6 17 2 30 -1
30 -7 0 -6 5 -6 13 1 9 8 12 4 13 -14 1 -13 -2 -24 -6 -24 -4 0 -11 -7 -14
-16 -3 -8 -2 -12 4 -9 6 3 10 -2 10 -12 0 -15 2 -16 11 -3 9 12 9 11 4 -5 -4
-11 -7 -28 -7 -38 0 -9 -3 -15 -9 -12 -5 4 -9 2 -9 -4 0 -6 -8 -8 -17 -5 -17
5 -17 5 0 -6 9 -6 23 -8 30 -4 6 4 9 4 5 -1 -4 -4 -4 -13 2 -19 5 -7 5 -17 0
-26 -8 -12 -10 -10 -10 8 0 12 -4 22 -10 22 -5 0 -10 -4 -10 -10 0 -5 -5 -10
-11 -10 -8 0 -8 5 1 15 8 9 8 15 2 15 -16 0 -21 -23 -10 -44 8 -15 12 -16 19
-5 7 11 9 10 9 -3 0 -12 -8 -18 -25 -18 -18 0 -23 -4 -19 -15 4 -8 12 -15 19
-15 23 0 32 -81 14 -127 l-11 -28 -10 25 c-5 14 -10 46 -12 73 -2 26 -6 50
-10 54 -6 6 -11 -35 -8 -70 1 -10 -3 -15 -8 -12 -6 3 -10 -1 -10 -9 0 -9 5
-16 10 -16 7 0 7 -6 0 -19 -13 -25 -13 -54 0 -46 12 8 12 8 1 -33 -6 -18 -6
-30 -1 -27 4 3 7 -13 7 -35 -1 -22 -4 -40 -8 -40 -3 0 -5 14 -4 30 1 17 0 28
-4 25 -3 -4 -6 -10 -6 -13 0 -11 -35 -57 -35 -47 0 6 -5 3 -10 -5 -6 -8 -7
-28 -4 -44 4 -18 2 -26 -4 -22 -6 3 -8 -8 -5 -32 2 -24 1 -32 -5 -24 -6 10
-11 1 -15 -29 -7 -52 23 -135 47 -133 27 3 19 -33 -9 -38 -13 -3 -22 -1 -19 3
8 14 -16 90 -26 84 -6 -4 -4 -18 5 -35 21 -40 19 -47 -6 -19 -19 23 -20 23
-14 2 3 -12 1 -24 -5 -28 -7 -4 -10 -28 -9 -56 2 -27 0 -52 -4 -55 -18 -19 -3
-23 30 -9 44 19 75 44 67 56 -9 15 26 42 56 43 26 1 27 2 13 19 -9 9 -11 17
-5 17 6 0 13 -6 15 -12 4 -9 12 -5 26 12 11 14 21 21 21 17 0 -5 23 18 51 50
43 50 50 62 45 88 -4 16 -11 32 -16 33 -6 2 -10 10 -10 18 0 9 -11 14 -35 14
-34 0 -35 1 -35 39 0 38 1 39 40 43 35 3 40 1 41 -17 0 -11 3 -14 6 -8 3 10 8
9 20 -2 8 -8 19 -13 24 -10 12 8 11 25 -2 25 -5 0 -7 -5 -3 -12 4 -7 3 -8 -4
-4 -15 9 -3 38 13 32 7 -2 16 5 20 17 6 21 7 21 17 -7 9 -24 8 -30 -6 -38 -9
-5 -14 -13 -11 -18 3 -5 0 -12 -6 -16 -8 -5 -9 -3 -4 7 5 8 4 11 -1 6 -5 -5
-9 -12 -10 -15 0 -4 -3 -14 -7 -22 -3 -8 -8 -22 -10 -30 -4 -9 -6 -6 -6 8 -1
12 -6 22 -12 22 -11 0 -3 -38 11 -54 11 -11 33 31 24 46 -4 7 -3 8 4 4 19 -12
54 69 47 112 -3 24 -2 30 3 18 10 -23 25 -6 16 18 -3 9 -1 16 5 16 6 0 11 5
11 10 0 16 -27 11 -34 -6 -4 -9 -9 -14 -13 -11 -3 4 0 14 7 22 10 12 10 19 2
27 -9 9 -12 7 -12 -7 0 -13 -3 -16 -10 -9 -6 6 -8 35 -4 73 6 55 9 62 28 60
71 -5 68 -9 62 96 -7 112 -24 197 -37 189 -14 -8 -11 -32 7 -58 10 -16 12 -26
4 -31 -12 -7 -13 -3 -34 80 -15 59 -13 83 4 55 5 -8 7 -24 4 -35 -4 -18 -4
-18 6 -3 8 13 6 27 -6 55 -8 21 -17 46 -20 57 -2 10 -10 26 -19 36 -8 9 -15
24 -15 33 0 9 -10 23 -22 31 -12 9 -19 16 -15 16 12 0 -50 94 -84 125 -29 27
-31 28 -26 8 6 -26 -17 -51 -29 -32 -5 8 -3 9 7 4 11 -7 12 -6 2 6 -9 11 -9
19 -2 26 15 15 2 34 -16 26 -8 -3 -15 0 -15 6 0 6 5 11 11 11 6 0 1 9 -12 19
-26 21 -39 10 -19 -14 7 -9 8 -15 2 -15 -12 0 -33 25 -31 36 3 14 -12 44 -20
39 -4 -2 -24 9 -44 26 -20 17 -44 32 -54 34 -10 2 -37 13 -60 24 -49 25 -65
27 -37 6 10 -8 14 -15 7 -15 -22 0 -43 12 -43 26 0 8 -4 14 -9 14 -5 0 -18 3
-28 6 -17 5 -17 5 -1 -9 10 -8 15 -17 11 -20 -3 -4 9 -13 28 -21 28 -13 30
-15 12 -16 -13 0 -32 9 -43 20 -29 29 -106 17 -94 -14 3 -8 15 -12 27 -10 21
4 21 4 2 -5 -11 -4 -24 -6 -28 -4 -5 3 -21 0 -37 -7 -37 -15 -73 2 -68 33 3
20 8 22 56 19 38 -2 52 1 52 11 0 7 12 18 28 24 l27 11 -30 1 c-154 6 -265 6
-265 -1z m170 -8 c11 -7 -4 -10 -50 -10 -46 0 -61 3 -50 10 8 5 31 10 50 10
19 0 42 -5 50 -10z m-320 -83 c8 -3 -8 -4 -37 -3 -28 1 -55 5 -60 10 -4 5 2 5
16 1 16 -5 21 -4 17 4 -5 7 2 7 21 1 15 -4 35 -11 43 -13z m501 -5 c-7 -2 -18
1 -23 6 -8 8 -4 9 13 5 13 -4 18 -8 10 -11z m-434 2 c-3 -3 -12 -4 -19 -1 -8
3 -5 6 6 6 11 1 17 -2 13 -5z m263 -30 c0 -2 -7 -4 -15 -4 -8 0 -15 4 -15 10
0 5 7 7 15 4 8 -4 15 -8 15 -10z m-392 -6 c18 -18 14 -31 -8 -25 -11 3 -20 0
-20 -6 0 -6 -3 -8 -6 -4 -7 7 5 47 15 47 4 0 12 -5 19 -12z m132 8 c0 -2 3
-11 6 -19 6 -17 -21 -47 -42 -47 -8 0 -13 3 -13 8 5 27 -2 41 -18 36 -15 -5
-15 -4 -3 4 8 6 17 9 21 6 4 -2 10 0 14 6 6 10 35 15 35 6z m685 -44 c-3 -3
-16 5 -28 17 l-22 23 28 -17 c15 -10 25 -20 22 -23z m-875 -12 c-20 -13 -33
-13 -25 0 3 6 14 10 23 10 15 0 15 -2 2 -10z m1040 -121 c16 -21 18 -32 10
-51 -8 -20 -10 -20 -9 -3 2 30 -12 66 -22 59 -5 -3 -5 -13 0 -23 7 -13 6 -18
-5 -18 -7 0 -12 3 -9 5 3 3 -2 16 -10 28 -9 15 -11 25 -5 29 6 4 7 12 3 18
-13 22 28 -16 47 -44z m-1256 22 c-3 -3 -11 -6 -17 -6 -7 -1 -11 -7 -9 -14 1
-7 -3 -19 -9 -27 -16 -20 5 -18 25 2 9 8 16 12 16 7 0 -15 -23 -33 -42 -33
-20 0 -24 15 -7 25 6 4 8 13 5 20 -5 15 9 32 29 32 8 0 12 -3 9 -6z m785 -124
c7 -13 11 -30 9 -37 -5 -22 -47 -53 -63 -46 -19 7 -19 30 0 46 8 7 13 16 10
20 -8 13 6 40 19 40 7 0 18 -10 25 -23z m477 -82 c-4 -14 -10 -25 -15 -25 -4
0 -3 16 3 35 12 38 22 29 12 -10z m84 5 c0 -5 8 -10 18 -11 14 0 14 -2 -3 -9
-33 -14 -43 -11 -38 10 5 20 23 28 23 10z m-945 -20 c3 -5 2 -10 -4 -10 -5 0
-13 5 -16 10 -3 6 -2 10 4 10 5 0 13 -4 16 -10z m150 -38 c-1 -2 -15 0 -31 4
-25 6 -26 8 -9 14 16 6 49 -9 40 -18z m-715 -35 c0 -5 -4 -5 -10 -2 -5 3 -10
14 -10 23 0 15 2 15 10 2 5 -8 10 -19 10 -23z m100 -39 c0 -5 -6 -8 -13 -5
-16 6 -19 -22 -4 -41 9 -11 7 -13 -9 -10 -17 3 -19 -4 -22 -74 -2 -51 1 -78 8
-78 23 0 -26 -37 -57 -43 -30 -6 -31 -5 -24 21 5 17 14 27 27 27 17 0 19 9 22
73 2 39 7 72 12 72 5 0 7 12 6 28 -3 19 3 30 18 39 22 12 36 9 36 -9z m317 0
c-3 -8 -6 -5 -6 6 -1 11 2 17 5 13 3 -3 4 -12 1 -19z m746 -9 c4 -15 2 -19
-10 -15 -8 3 -18 6 -21 6 -4 0 0 5 8 10 10 6 11 10 3 10 -7 0 -13 4 -13 10 0
17 28 -1 33 -21z m386 -46 c1 -17 6 -35 11 -38 16 -10 11 -58 -9 -84 l-18 -24
-7 43 c-4 23 -4 45 -1 48 3 3 5 0 5 -6 0 -7 7 -12 16 -12 13 0 14 3 4 15 -7 8
-13 41 -15 72 -1 37 1 51 6 38 4 -11 8 -34 8 -52z m-651 -5 c-7 -19 -38 -22
-38 -4 0 10 9 16 21 16 12 0 19 -5 17 -12z m247 -28 c3 -5 1 -10 -4 -10 -6 0
-11 5 -11 10 0 6 2 10 4 10 3 0 8 -4 11 -10z m-1179 -37 c-10 -10 -19 5 -10
18 6 11 8 11 12 0 2 -7 1 -15 -2 -18z m1178 -8 c-4 -8 -8 -15 -10 -15 -2 0 -4
7 -4 15 0 8 4 15 10 15 5 0 7 -7 4 -15z m-697 -47 c-3 -7 -5 -2 -5 12 0 14 2
19 5 13 2 -7 2 -19 0 -25z m440 -5 c-9 -9 -19 -14 -22 -11 -3 3 2 13 11 22 9
9 19 14 22 11 3 -3 -2 -13 -11 -22z m476 -8 c-3 -9 -8 -14 -10 -11 -3 3 -2 9
2 15 9 16 15 13 8 -4z m-535 -13 c2 -7 -7 -12 -23 -12 -24 0 -26 2 -15 15 14
17 31 16 38 -3z m-684 -5 c3 3 6 1 6 -4 0 -6 -6 -14 -12 -17 -7 -3 0 -3 16 1
25 5 28 4 21 -16 -5 -16 -3 -20 9 -15 9 3 16 1 16 -5 0 -6 -7 -11 -15 -11 -8
0 -15 -4 -15 -8 0 -4 -8 -8 -17 -8 -10 0 -29 -3 -43 -7 -14 -4 -19 -4 -12 -1
6 3 9 11 6 16 -5 7 -2 8 5 3 9 -5 12 -2 9 11 -2 11 -9 18 -14 17 -11 -2 -15
22 -8 45 3 9 9 10 23 3 10 -6 21 -7 25 -4z m1016 -63 c0 -8 -4 -12 -10 -9 -5
3 -10 13 -10 21 0 8 5 12 10 9 6 -3 10 -13 10 -21z m-40 -104 c-13 -24 -26
-26 -34 -4 -5 14 -4 15 8 5 11 -9 15 -8 20 4 3 8 8 15 11 15 3 0 1 -9 -5 -20z
m251 -15 c3 2 5 -11 6 -30 1 -40 -11 -44 -44 -13 -26 24 -29 38 -11 56 9 9 15
8 28 -3 9 -8 19 -13 21 -10z m-565 -87 c3 -4 -1 -5 -10 -4 -8 1 -18 5 -22 8
-3 4 1 5 10 4 8 -1 18 -5 22 -8z m544 -23 c0 -2 -7 -8 -15 -15 -12 -10 -15
-10 -15 2 0 8 7 15 15 15 8 0 15 -1 15 -2z m-75 -31 c26 10 11 -42 -17 -59
-23 -13 -27 -14 -22 -1 3 8 12 17 20 20 9 3 12 11 9 16 -5 8 -11 7 -21 -1 -23
-19 -28 -3 -7 24 13 19 19 21 21 10 2 -8 10 -12 17 -9z m-345 0 c0 -2 -7 -4
-15 -4 -8 0 -15 4 -15 10 0 5 7 7 15 4 8 -4 15 -8 15 -10z m450 -174 c-3 -3
-5 -12 -5 -20 0 -21 -27 -19 -43 2 -11 15 -11 21 2 34 9 8 20 12 26 9 5 -3 11
4 11 17 1 19 3 17 8 -7 4 -16 4 -32 1 -35z m71 2 c-13 -31 -71 -93 -71 -76 0
5 -4 4 -8 -3 -5 -8 -12 -7 -27 4 -20 15 -20 15 3 8 14 -4 22 -2 22 5 0 7 7 9
16 6 15 -6 15 -4 3 11 -12 15 -12 16 3 11 9 -4 23 1 32 11 23 25 20 38 -3 16
-19 -16 -20 -16 -18 3 0 11 5 18 10 15 12 -7 38 18 30 31 -4 7 -2 7 7 -1 10
-9 10 -18 1 -41z m-201 9 c0 -11 -5 -23 -11 -27 -15 -9 -33 12 -26 30 9 23 37
20 37 -3z m-53 -23 c-3 -8 -6 -5 -6 6 -1 11 2 17 5 13 3 -3 4 -12 1 -19z m117
-50 c-3 -4 -12 -8 -20 -8 -8 0 -13 4 -10 8 3 5 12 9 20 9 8 0 13 -4 10 -9z
m22 -46 c-9 -9 -37 8 -31 18 5 8 11 7 21 -1 8 -6 12 -14 10 -17z m-145 -43 c6
-12 7 -19 1 -15 -5 3 -13 -1 -16 -10 -8 -21 2 -54 15 -54 6 0 8 4 5 8 -9 14
24 67 49 79 14 6 25 8 25 4 0 -4 -11 -13 -25 -19 -15 -7 -25 -20 -25 -32 0
-11 -5 -20 -11 -20 -5 0 -8 -4 -4 -9 3 -6 -3 -15 -14 -20 -25 -14 -41 -14 -21
-1 8 5 10 10 4 10 -7 0 -10 18 -8 48 3 63 6 66 25 31z"/>
<path d="M2410 2314 c0 -8 5 -12 10 -9 6 4 8 11 5 16 -9 14 -15 11 -15 -7z"/>
<path d="M1950 2190 c0 -5 5 -10 10 -10 6 0 10 5 10 10 0 6 -4 10 -10 10 -5 0
-10 -4 -10 -10z"/>
<path d="M2210 2589 c-25 -9 -25 -9 3 -5 23 3 25 1 15 -12 -11 -13 -10 -15 4
-10 10 4 19 1 22 -7 3 -9 12 -12 22 -8 12 4 15 3 10 -6 -4 -6 -3 -10 3 -9 5 2
16 -6 25 -17 14 -19 15 -19 12 8 -3 27 -16 51 -16 28 0 -7 -5 -9 -10 -6 -6 4
-8 10 -5 15 13 21 -48 42 -85 29z m80 -24 c0 -2 -6 -5 -13 -8 -8 -3 -14 1 -14
8 0 7 6 11 14 8 7 -3 13 -6 13 -8z"/>
<path d="M2330 2530 c0 -5 5 -10 10 -10 6 0 10 5 10 10 0 6 -4 10 -10 10 -5 0
-10 -4 -10 -10z"/>
<path d="M2153 2493 c9 -2 15 -8 13 -12 -3 -4 0 -13 5 -21 8 -13 10 -13 19 0
11 17 -13 41 -39 39 -12 -1 -12 -2 2 -6z"/>
<path d="M2388 2458 c14 -14 24 -17 42 -10 18 7 20 11 10 17 -8 5 -27 9 -43
10 -27 1 -28 1 -9 -17z"/>
<path d="M327 2445 c-4 -11 -10 -27 -13 -35 -4 -11 -3 -12 4 -2 11 16 35 -58
26 -82 -3 -9 -2 -16 4 -16 17 0 22 44 7 67 -17 26 -19 37 -5 28 6 -3 10 -1 10
4 0 6 -4 11 -9 11 -5 0 -11 10 -13 23 -3 21 -4 21 -11 2z"/>
<path d="M1945 2438 c-11 -7 -26 -18 -33 -25 -13 -13 -32 -17 -62 -14 -12 2
-13 0 -1 -7 7 -5 23 -7 35 -5 15 3 17 2 8 -5 -9 -6 8 -9 50 -10 46 0 56 2 38
8 l-25 8 26 1 c15 1 32 8 39 16 11 13 6 14 -36 10 -41 -4 -44 -3 -16 4 42 11
57 25 17 16 -23 -5 -26 -4 -15 4 20 14 0 13 -25 -1z m5 -42 c0 -2 -9 -6 -20
-9 -11 -3 -18 -1 -14 4 5 9 34 13 34 5z"/>
<path d="M2436 2415 c4 -9 11 -14 16 -13 15 5 11 23 -6 26 -11 2 -14 -2 -10
-13z"/>
<path d="M297 2368 c-3 -11 -3 -27 0 -35 5 -12 7 -12 15 -1 6 9 7 6 3 -10 -4
-14 -1 -28 9 -38 14 -14 14 -18 1 -44 -17 -34 -19 -56 -5 -65 6 -4 7 1 3 10
-3 10 -1 20 4 24 16 10 27 91 13 91 -8 0 -11 10 -7 28 4 20 1 33 -13 44 -17
15 -19 15 -23 -4z"/>
<path d="M284 2290 c4 -22 2 -30 -9 -30 -11 0 -13 -8 -8 -32 5 -24 3 -29 -7
-23 -8 5 -11 3 -8 -6 3 -8 12 -15 20 -17 24 -5 40 53 28 99 -13 46 -25 53 -16
9z m7 -61 c-5 -13 -10 -19 -10 -12 -1 15 10 45 15 40 3 -2 0 -15 -5 -28z"/>
<path d="M2021 2272 c-7 -13 -6 -19 2 -19 7 0 21 -4 31 -9 15 -5 17 -4 11 6
-6 9 -4 11 4 6 7 -5 10 -14 7 -22 -3 -8 0 -15 7 -16 13 -1 29 -5 37 -8 20 -7
40 -7 40 2 0 6 -7 8 -15 4 -8 -3 -15 -1 -15 3 0 5 -7 12 -16 15 -8 3 -12 2 -9
-4 3 -6 2 -10 -3 -10 -6 0 -13 11 -16 25 -4 14 -13 25 -21 25 -8 0 -15 5 -15
10 0 17 -19 11 -29 -8z"/>
<path d="M2170 2211 c0 -15 29 -33 41 -25 9 5 10 2 6 -9 -3 -8 1 -21 9 -28 11
-9 12 -15 3 -26 -9 -11 -8 -18 7 -32 25 -23 42 -17 36 14 -2 14 -8 22 -13 19
-5 -3 -7 -10 -4 -15 3 -5 -1 -6 -9 -3 -14 5 -14 8 0 22 15 14 14 16 -7 24 -17
7 -20 11 -10 17 9 6 6 14 -15 30 -28 22 -44 27 -44 12z m35 -19 c-3 -3 -11 0
-18 7 -9 10 -8 11 6 5 10 -3 15 -9 12 -12z"/>
<path d="M239 2140 c-3 -31 1 -49 10 -56 13 -10 13 -14 -1 -28 -9 -9 -18 -11
-20 -6 -2 5 -3 -30 -4 -78 -1 -79 0 -83 8 -37 5 28 10 61 12 75 2 13 9 26 15
28 7 2 11 -2 10 -9 -2 -8 1 -25 5 -38 5 -14 4 -27 -3 -34 -8 -8 -11 -4 -12 13
l-1 25 -7 -23 c-3 -13 -4 -44 -1 -70 l4 -47 7 45 c5 37 6 31 7 -37 2 -66 5
-83 17 -83 12 0 15 15 13 78 l-1 77 -7 -60 -7 -60 -1 68 c-1 38 1 66 6 64 4
-3 7 14 7 36 0 23 4 59 8 80 5 24 4 37 -3 37 -5 0 -10 -19 -10 -42 0 -51 -8
-46 -13 8 -2 24 -8 38 -15 36 -8 -1 -11 6 -9 20 3 13 1 32 -3 43 -6 15 -9 9
-11 -25z"/>
<path d="M848 2152 c-3 -10 1 -23 8 -30 10 -9 12 -6 12 18 -1 33 -13 40 -20
12z"/>
<path d="M2015 2149 c-4 -6 -5 -12 -2 -15 2 -3 7 2 10 11 7 17 1 20 -8 4z"/>
<path d="M2033 2125 c-10 -10 -9 -14 3 -19 9 -3 20 -4 25 0 5 3 9 1 9 -5 0
-12 15 -10 58 8 34 14 43 31 16 31 -8 0 -13 -4 -10 -9 3 -5 -1 -12 -10 -15
-22 -8 -26 -8 -19 4 9 14 -8 13 -23 -2 -8 -8 -12 -8 -12 -1 0 17 -24 22 -37 8z"/>
<path d="M2175 2130 c-3 -6 1 -7 9 -4 18 7 21 14 7 14 -6 0 -13 -4 -16 -10z"/>
<path d="M2180 2076 c0 -2 7 -7 16 -10 8 -3 12 -2 9 4 -6 10 -25 14 -25 6z"/>
<path d="M2260 2060 c-12 -8 -10 -10 8 -10 13 0 20 4 17 10 -7 12 -6 12 -25 0z"/>
<path d="M2195 2035 c11 -16 20 -31 21 -33 1 -2 2 9 2 23 0 14 -3 23 -6 21 -3
-3 -12 0 -20 7 -11 8 -10 3 3 -18z"/>
<path d="M2688 2039 c-15 -24 -14 -49 2 -49 15 0 28 34 21 54 -7 17 -8 17 -23
-5z"/>
<path d="M523 1930 l-32 -72 -48 6 c-26 4 -61 9 -78 12 -29 6 -29 5 20 -44 38
-38 50 -58 50 -80 1 -17 -3 -28 -7 -26 -7 5 -9 -2 -8 -21 1 -3 -8 -17 -20 -32
-11 -14 -20 -31 -20 -37 0 -6 4 -5 9 2 4 8 11 13 15 13 3 0 31 11 61 26 l55
27 28 -27 c16 -15 32 -24 36 -20 4 4 4 -1 0 -12 -6 -15 -4 -17 10 -12 9 4 15
3 12 -2 -3 -5 2 -15 11 -22 15 -13 16 -11 9 11 -4 14 -9 34 -10 45 -2 11 -4
20 -5 20 -1 0 -4 15 -6 33 -2 27 2 35 26 48 16 8 29 19 29 25 0 6 4 8 9 5 5
-4 23 2 40 11 l31 18 -77 10 -78 10 -12 70 c-7 39 -14 74 -16 78 -1 5 -17 -24
-34 -63z"/>
<path d="M2268 1993 c7 -3 16 -2 19 1 4 3 -2 6 -13 5 -11 0 -14 -3 -6 -6z"/>
<path d="M2308 1983 c6 -2 18 -2 25 0 6 3 1 5 -13 5 -14 0 -19 -2 -12 -5z"/>
<path d="M2702 1978 c-15 -15 -16 -64 -2 -73 6 -4 10 5 9 22 -1 15 2 36 6 46
8 20 4 22 -13 5z"/>
<path d="M1756 1965 c4 -8 8 -15 10 -15 2 0 4 7 4 15 0 8 -4 15 -10 15 -5 0
-7 -7 -4 -15z"/>
<path d="M2290 1960 c-13 -8 -13 -10 2 -10 9 0 20 5 23 10 8 13 -5 13 -25 0z"/>
<path d="M790 1939 c0 -11 4 -18 10 -14 5 3 7 12 3 20 -7 21 -13 19 -13 -6z"/>
<path d="M2373 1948 c4 -10 2 -18 -3 -18 -6 0 -10 -4 -10 -10 0 -16 17 -11 24
7 4 9 1 21 -5 27 -9 8 -10 7 -6 -6z"/>
<path d="M1767 1905 c9 -58 14 -62 29 -26 8 19 12 36 9 39 -3 3 -5 0 -5 -6 0
-7 -4 -12 -10 -12 -14 0 -12 27 3 33 6 3 2 4 -10 4 -18 -1 -21 -6 -16 -32z"/>
<path d="M2265 1930 c3 -5 10 -10 16 -10 5 0 9 5 9 10 0 6 -7 10 -16 10 -8 0
-12 -4 -9 -10z"/>
<path d="M3060 1851 c-30 -63 -35 -69 -56 -61 -12 5 -31 9 -41 8 -10 0 -34 3
-52 8 l-35 7 57 -54 57 -54 -34 -71 -34 -71 59 30 c35 18 59 36 59 46 0 14 2
14 10 1 8 -12 11 -13 19 -1 5 8 11 9 15 3 3 -6 2 -12 -4 -14 -5 -1 12 -24 40
-50 l49 -47 -5 46 c-3 25 -9 56 -14 69 -7 17 -5 27 5 37 8 8 11 18 7 21 -3 4
0 5 8 2 8 -3 36 7 63 22 l47 28 -71 11 c-39 7 -75 15 -79 20 -5 4 -11 33 -15
63 -4 30 -10 58 -14 63 -4 4 -22 -24 -41 -62z m-75 -249 c-3 -3 -11 0 -18 7
-9 10 -8 11 6 5 10 -3 15 -9 12 -12z"/>
<path d="M800 1899 c0 -5 -4 -8 -9 -5 -5 3 -8 -5 -7 -19 2 -38 22 -37 24 1 2
19 0 34 -3 34 -3 0 -5 -5 -5 -11z"/>
<path d="M222 1795 c-1 -45 2 -65 7 -55 5 9 6 40 1 70 l-8 55 0 -70z"/>
<path d="M252 1810 c0 -19 2 -27 5 -17 2 9 2 25 0 35 -3 9 -5 1 -5 -18z"/>
<path d="M770 1831 c0 -5 7 -12 16 -15 24 -9 27 -7 10 9 -17 17 -26 19 -26 6z"/>
<path d="M775 1790 c4 -6 11 -8 16 -5 14 9 11 15 -7 15 -8 0 -12 -5 -9 -10z"/>
<path d="M262 1694 c-22 -68 -27 -168 -9 -157 4 3 5 23 2 46 -4 26 -1 57 8 82
l15 40 -1 -37 c-1 -21 2 -41 7 -45 9 -9 26 16 25 37 0 10 -2 11 -6 3 -2 -7 -9
-13 -14 -13 -6 0 -6 7 0 18 5 9 6 35 2 57 l-7 40 -22 -71z"/>
<path d="M1740 1720 c0 -6 -10 -10 -22 -9 -38 3 -58 0 -58 -11 0 -12 22 -9 32
5 4 5 6 0 5 -13 -1 -17 -6 -21 -22 -16 -14 4 -16 3 -7 -4 8 -5 13 -13 12 -18
-1 -5 3 -10 9 -12 6 -2 11 1 11 6 0 6 10 7 23 4 21 -5 21 -5 4 12 -18 18 -14
41 7 33 7 -3 13 4 13 14 1 10 0 19 -3 19 -2 0 -4 -5 -4 -10z"/>
<path d="M225 1679 c-4 -11 -4 -23 -1 -26 3 -4 6 1 6 10 0 10 5 17 10 17 6 0
10 5 10 10 0 18 -19 10 -25 -11z"/>
<path d="M2607 1672 c-12 -2 -16 -10 -12 -22 3 -11 0 -20 -10 -24 -13 -5 -13
-9 -3 -26 17 -27 31 -25 24 3 -4 14 -1 12 9 -8 l14 -30 -3 47 c-2 26 1 45 5
42 5 -3 9 -1 9 5 0 13 -12 18 -33 13z"/>
<path d="M960 1646 c0 -25 12 -46 25 -46 25 0 25 17 0 38 -18 16 -25 18 -25 8z"/>
<path d="M260 1606 c0 -14 5 -26 10 -26 6 0 10 9 10 19 0 11 -4 23 -10 26 -6
4 -10 -5 -10 -19z"/>
<path d="M2690 1569 c0 -26 3 -30 10 -19 9 13 10 13 11 0 1 -8 1 -24 0 -35
l-1 -20 9 20 c6 13 3 30 -7 50 -21 42 -22 42 -22 4z"/>
<path d="M292 1578 c-6 -7 -16 -34 -22 -60 -9 -36 -9 -51 1 -69 7 -13 14 -40
16 -59 1 -19 14 -64 28 -100 15 -36 30 -73 34 -83 6 -17 8 -16 21 8 11 21 12
28 1 34 -9 6 -11 17 -6 32 8 24 8 24 -14 5 -16 -15 -21 -16 -22 -5 -3 46 -7
63 -17 67 -7 2 -12 8 -12 13 0 6 4 8 9 4 5 -3 13 0 16 6 5 7 15 3 31 -12 22
-21 35 -15 15 6 -5 6 -11 19 -13 29 -4 27 -39 30 -46 4 -3 -15 -7 -16 -13 -7
-5 8 -3 17 4 21 8 5 4 14 -12 32 -13 13 -21 31 -18 38 4 9 6 7 6 -4 1 -10 5
-18 10 -18 5 0 12 8 14 18 20 72 14 129 -11 100z m9 -54 c-5 -16 -10 -21 -10
-12 -1 18 10 51 15 45 2 -1 -1 -16 -5 -33z"/>
<path d="M2018 1508 c-15 -22 -14 -23 18 -23 29 0 31 2 18 16 -8 9 -11 19 -7
22 3 4 2 7 -4 7 -6 0 -17 -10 -25 -22z"/>
<path d="M2676 1523 c-10 -11 -7 -65 4 -58 6 3 8 18 5 33 -4 23 -4 24 4 7 8
-17 10 -17 10 -3 1 19 -13 31 -23 21z"/>
<path d="M325 1502 c4 -13 1 -29 -6 -38 -10 -12 -9 -18 4 -32 16 -15 17 -14
17 23 0 22 -5 47 -11 55 -8 12 -9 10 -4 -8z"/>
<path d="M1233 1492 c-3 -9 -7 -19 -9 -22 -1 -3 6 -6 16 -6 11 0 16 5 12 15
-3 9 -1 12 6 7 7 -4 12 -3 12 2 0 19 -31 22 -37 4z"/>
<path d="M1100 1485 c-7 -8 -15 -13 -19 -11 -4 3 -13 0 -21 -6 -12 -8 -12 -9
3 -4 20 6 22 -4 5 -23 -10 -11 -10 -14 0 -18 15 -6 16 -33 1 -33 -5 0 -7 -5
-3 -12 4 -7 3 -8 -5 -4 -6 4 -9 12 -6 17 4 5 3 19 -1 31 -6 19 -7 20 -16 4 -7
-12 -4 -26 10 -48 l20 -32 15 35 c8 19 10 37 5 40 -5 3 1 22 12 42 22 38 22
49 0 22z"/>
<path d="M1175 1492 c-42 -4 -68 -18 -59 -33 3 -5 0 -9 -6 -9 -8 0 -10 -9 -6
-24 3 -12 3 -26 -1 -30 -4 -4 -8 -12 -9 -19 -2 -7 -6 -23 -10 -36 -5 -17 -4
-22 4 -17 7 4 12 14 12 22 0 8 4 14 10 14 5 0 8 16 6 35 -1 19 1 35 6 35 4 0
8 6 8 14 0 8 16 16 39 20 22 3 43 11 46 17 9 14 7 15 -40 11z"/>
<path d="M2703 1474 c-3 -9 -20 -23 -37 -31 -24 -11 -25 -13 -6 -8 14 3 32 7
40 8 17 2 30 16 30 35 0 18 -20 15 -27 -4z"/>
<path d="M842 1450 c-10 -17 -9 -27 6 -61 16 -35 20 -38 25 -20 3 12 1 19 -4
16 -12 -8 -22 39 -14 64 8 27 3 27 -13 1z"/>
<path d="M2154 1415 c-4 -8 -9 -13 -13 -12 -3 2 -17 -7 -31 -20 -20 -20 -21
-23 -5 -17 17 6 18 5 7 -7 -7 -8 -16 -14 -20 -14 -11 0 -58 -35 -47 -35 6 0 3
-5 -5 -10 -13 -8 -13 -10 1 -10 20 0 42 24 31 35 -4 5 -1 5 7 0 10 -6 12 -4 6
5 -5 9 -4 11 3 6 7 -4 18 -4 25 1 18 11 38 13 31 2 -3 -5 -13 -9 -22 -9 -12 0
-13 -3 -5 -11 8 -8 7 -23 -4 -55 -12 -36 -13 -50 -3 -74 7 -16 9 -34 5 -39 -3
-6 -1 -19 4 -28 9 -15 11 -13 12 15 1 17 3 47 6 65 2 17 4 51 5 75 1 23 6 42
10 42 13 0 4 50 -11 59 -9 6 -7 10 8 14 12 3 21 12 21 21 0 20 -9 21 -16 1z
m-4 -50 c0 -12 -19 -12 -23 0 -4 9 -1 12 9 8 7 -3 14 -7 14 -8z m-14 -120 c-4
-14 -11 -25 -16 -25 -5 0 -5 13 2 31 12 35 23 31 14 -6z"/>
<path d="M2480 1410 c0 -5 7 -7 15 -4 8 4 15 8 15 10 0 2 -7 4 -15 4 -8 0 -15
-4 -15 -10z"/>
<path d="M1697 1362 c-9 -14 21 -64 34 -56 5 3 14 -6 21 -20 6 -14 14 -26 17
-27 29 -3 45 -9 55 -19 8 -9 3 -10 -19 -4 -17 4 -26 3 -22 -2 11 -11 87 -16
87 -5 0 5 -8 8 -17 7 -10 0 -18 4 -18 9 -1 24 -16 35 -35 25 -19 -10 -36 2
-26 18 3 5 -4 16 -16 26 -16 14 -22 15 -29 5 -5 -9 -10 -2 -16 21 -6 21 -12
30 -16 22z"/>
<path d="M334 1330 c1 -32 4 -34 25 -21 11 7 10 13 -6 30 l-20 22 1 -31z"/>
<path d="M979 1348 c-1 -7 -1 -17 0 -21 1 -4 -5 -10 -13 -13 -8 -3 -12 -12 -9
-20 3 -8 1 -14 -5 -14 -6 0 -15 -13 -20 -30 -10 -26 -7 -33 19 -61 16 -17 29
-35 29 -39 0 -15 42 -60 51 -55 5 4 9 -2 9 -12 0 -11 15 -34 33 -51 26 -26 33
-29 32 -15 0 10 -4 24 -9 31 -4 6 -2 12 3 12 6 0 11 -3 12 -7 5 -64 28 -98 56
-88 7 2 10 -2 6 -13 -3 -9 4 -2 16 16 12 18 18 38 15 44 -4 7 -2 8 4 4 6 -3
16 2 22 13 7 13 7 22 0 26 -5 3 -10 3 -10 -1 0 -4 -13 11 -29 34 -36 49 -48
57 -83 53 -19 -2 -26 2 -24 13 1 8 6 19 11 23 4 4 5 3 1 -4 -3 -6 -1 -15 5
-18 16 -11 23 3 10 19 -15 17 -46 14 -47 -5 -1 -8 -2 -18 -3 -23 0 -5 -8 -3
-16 4 -8 6 -18 9 -22 7 -5 -3 -9 10 -9 29 0 19 2 34 5 35 3 0 14 2 24 4 13 2
17 -1 13 -12 -3 -8 -6 -20 -6 -26 0 -7 -4 -6 -10 3 -5 8 -10 11 -10 5 0 -5 4
-17 9 -24 8 -12 11 -9 17 13 4 19 11 25 22 21 13 -5 12 -2 -2 14 -10 11 -23
18 -29 14 -6 -4 -8 0 -4 10 3 9 2 19 -3 22 -5 3 -11 -4 -15 -15 -8 -24 -18
-25 -38 -5 -8 8 -17 11 -21 8 -3 -4 -6 -2 -6 4 0 6 7 16 16 23 23 20 38 51 22
48 -8 -2 -12 4 -10 15 2 9 0 17 -3 17 -3 0 -6 -6 -6 -12z m-22 -140 c2 -17 0
-19 -7 -8 -5 8 -6 18 -4 22 8 12 10 10 11 -14z m38 -8 c-3 -5 -10 -10 -16 -10
-5 0 -9 5 -9 10 0 6 7 10 16 10 8 0 12 -4 9 -10z m40 -72 c5 4 5 1 1 -6 -6
-10 -11 -10 -22 -1 -8 6 -14 14 -14 16 0 3 6 0 13 -6 8 -6 18 -7 22 -3z m146
-41 c10 -18 -11 -63 -24 -50 -11 10 -8 35 2 28 5 -3 13 0 17 6 5 8 3 9 -6 4
-10 -6 -12 -4 -7 8 3 9 1 19 -5 23 -6 4 -8 3 -5 -3 4 -6 -1 -18 -11 -26 -16
-15 -18 -15 -18 3 0 10 4 16 8 14 4 -3 8 -1 8 5 0 5 -5 13 -10 16 -6 4 -8 11
-4 16 7 11 40 -15 55 -44z"/>
<path d="M1104 1321 c-10 -26 -8 -33 28 -75 22 -25 44 -44 49 -40 14 9 10 24
-5 18 -8 -3 -17 -1 -20 4 -3 6 1 13 10 16 12 5 10 10 -13 30 -20 17 -30 21
-36 13 -4 -7 -5 5 -1 26 7 44 2 48 -12 8z m44 -77 c-4 -3 -12 5 -18 18 -12 22
-12 22 6 6 10 -10 15 -20 12 -24z"/>
<path d="M1284 1305 c2 -22 2 -32 0 -22 -4 11 -15 17 -35 17 -27 0 -29 -2 -19
-20 6 -11 19 -19 28 -18 12 2 18 -5 20 -24 4 -36 -3 -35 -35 3 -14 16 -32 28
-39 25 -9 -3 -11 0 -7 11 4 11 2 14 -5 9 -7 -4 -12 -3 -12 2 0 5 -6 9 -14 9
-8 0 -12 -6 -9 -14 3 -7 9 -11 13 -8 14 9 31 -55 19 -76 -7 -15 -6 -19 4 -19
8 0 22 -10 30 -22 14 -19 18 -21 26 -8 5 8 13 12 16 8 3 -3 -1 -13 -10 -22
-14 -14 -11 -18 11 -15 4 0 11 -5 15 -13 6 -9 9 -9 9 -1 0 6 -4 14 -8 17 -5 3
-6 20 -4 38 4 24 7 28 11 15 4 -10 7 17 8 60 0 43 -3 85 -9 93 -6 10 -8 3 -4
-25z m-60 -99 c-10 -8 -21 -12 -24 -10 -5 6 21 24 34 24 6 0 1 -6 -10 -14z
m41 -27 c-4 -5 -13 -9 -22 -9 -13 0 -13 3 -3 15 13 15 35 11 25 -6z"/>
<path d="M1683 1318 c3 -9 1 -20 -5 -26 -12 -12 -1 -35 13 -27 13 9 11 52 -3
61 -7 5 -9 2 -5 -8z"/>
<path d="M2090 1297 c0 -13 -8 -31 -18 -40 -21 -19 -32 -22 -32 -7 0 6 6 10
14 10 8 0 18 5 21 11 5 7 -9 9 -41 7 -36 -2 -48 -7 -50 -20 -1 -10 2 -18 8
-18 6 0 8 7 4 15 -3 8 -1 15 3 15 16 0 20 -28 5 -34 -19 -7 -45 4 -37 17 3 6
1 7 -6 3 -6 -4 -8 -12 -5 -18 5 -7 1 -9 -9 -5 -16 6 -54 -18 -93 -60 -20 -21
-100 -47 -116 -37 -4 3 -8 14 -8 24 0 26 -15 33 -34 15 -15 -16 -33 -4 -21 15
3 6 2 10 -4 10 -5 0 -15 -13 -23 -30 -7 -16 -17 -30 -22 -30 -6 0 -5 -5 2 -12
15 -15 16 -58 1 -58 -6 0 -8 9 -4 23 6 21 5 21 -9 3 -9 -10 -13 -23 -10 -28 7
-11 47 -6 56 7 5 6 8 5 8 -3 0 -7 -7 -15 -15 -18 -8 -4 -15 -12 -15 -19 0 -7
-11 -15 -25 -17 -21 -4 -23 -3 -14 9 9 11 9 17 -1 26 -9 9 -11 9 -6 0 3 -6 2
-14 -4 -18 -16 -10 -12 -35 6 -35 8 0 13 -4 9 -10 -3 -5 9 -17 27 -26 19 -10
27 -19 20 -22 -7 -2 -19 1 -27 8 -8 6 -20 8 -26 4 -7 -4 -9 -3 -6 2 3 6 2 16
-4 24 -7 13 -9 12 -9 -2 0 -10 -6 -18 -12 -18 -8 0 -6 -5 4 -11 22 -12 94 -19
238 -23 90 -2 103 -1 60 6 -30 4 -82 6 -115 4 l-60 -5 60 11 c43 8 79 8 130 0
74 -12 88 -10 168 15 45 14 52 21 48 51 -1 6 3 12 8 12 5 0 8 -9 6 -20 -4 -22
0 -23 30 -10 13 6 15 9 5 9 -13 1 -13 2 0 12 13 9 13 10 0 7 -8 -1 -25 3 -37
10 -15 8 -23 9 -23 2 0 -5 -5 -10 -10 -10 -6 0 -5 8 2 20 7 11 19 20 26 20 10
0 12 9 7 33 -8 37 -13 47 -24 47 -4 0 -5 -15 -3 -32 3 -18 2 -30 -2 -27 -4 3
-7 23 -8 43 -1 30 -6 40 -26 47 -32 12 -83 8 -89 -8 -3 -7 -13 -13 -22 -13
-14 0 -14 -2 -1 -10 11 -7 4 -10 -27 -10 -32 0 -43 4 -43 15 0 9 9 15 25 15
20 0 25 5 25 25 0 18 5 25 18 25 10 0 22 3 25 6 11 11 79 14 98 4 9 -6 20 -23
24 -40 4 -16 11 -30 16 -30 14 0 11 28 -3 32 -12 4 -6 52 13 117 2 7 -2 16 -8
18 -8 3 -13 -4 -13 -20z m-407 -164 c-7 -2 -21 -2 -30 0 -10 3 -4 5 12 5 17 0
24 -2 18 -5z m1 -28 c-4 -8 -8 -15 -10 -15 -2 0 -4 7 -4 15 0 8 4 15 10 15 5
0 7 -7 4 -15z m81 -8 c3 -12 4 -46 1 -75 l-5 -52 39 0 c21 0 42 5 45 10 4 6
12 4 21 -5 20 -19 48 -19 68 1 9 8 22 14 29 11 6 -2 -2 -11 -18 -20 -25 -13
-45 -14 -110 -7 -117 13 -160 23 -159 38 1 6 2 23 3 37 1 17 7 25 19 25 9 0
23 13 30 30 16 36 30 38 37 7z m256 -119 c17 -10 23 -10 26 -1 2 7 12 9 20 6
12 -5 6 -10 -21 -19 -20 -7 -43 -11 -50 -8 -8 3 -17 1 -21 -5 -3 -6 -14 -11
-23 -11 -15 1 -14 3 3 16 12 9 30 13 45 9 l25 -5 -25 15 c-14 8 -19 14 -12 15
7 0 22 -6 33 -12z m-316 -19 c16 -16 -29 -9 -50 7 -19 15 -19 15 10 8 17 -3
34 -11 40 -15z"/>
<path d="M1011 1298 c0 -9 -7 -18 -13 -21 -10 -4 -10 -7 -1 -18 17 -18 25 -6
20 28 -2 15 -5 21 -6 11z"/>
<path d="M1739 1268 c-1 -5 -2 -11 -3 -15 -1 -5 -4 -12 -7 -18 -9 -13 7 -55
21 -55 5 0 10 5 10 10 0 6 7 10 15 10 12 0 13 4 6 19 -6 10 -8 21 -6 25 3 3 2
4 -2 1 -3 -3 -12 3 -19 13 -7 9 -14 14 -15 10z"/>
<path d="M2603 1235 c0 -8 4 -12 9 -9 4 3 8 9 8 15 0 5 -4 9 -8 9 -5 0 -9 -7
-9 -15z"/>
<path d="M2561 1201 c-19 -12 -23 -39 -5 -37 20 3 50 46 32 46 -7 0 -19 -4
-27 -9z m12 -16 c-3 -9 -8 -14 -10 -11 -3 3 -2 9 2 15 9 16 15 13 8 -4z"/>
<path d="M2472 1156 c-13 -16 -17 -26 -9 -29 6 -2 17 8 25 21 17 34 10 37 -16
8z"/>
<path d="M2509 1157 c-8 -7 -18 -20 -21 -29 -5 -11 -16 -15 -33 -14 -14 2 -28
-1 -31 -5 -3 -5 0 -9 7 -9 7 0 9 -3 6 -7 -4 -3 0 -15 10 -25 9 -10 13 -19 10
-19 -4 -1 -11 -2 -17 -3 -5 0 -15 -8 -22 -17 -12 -15 -15 -15 -30 2 -10 11
-14 19 -9 19 6 0 13 -5 16 -11 5 -7 14 -4 26 7 14 13 16 20 8 31 -6 7 -16 13
-21 13 -6 0 -6 -6 1 -14 9 -11 9 -16 0 -22 -7 -4 -9 -3 -6 3 4 6 0 14 -9 17
-8 3 -13 2 -10 -3 3 -5 -1 -12 -10 -15 -8 -3 -13 -10 -10 -15 8 -13 -21 -34
-35 -25 -8 5 -9 3 -4 -6 6 -10 4 -12 -11 -6 -14 5 -16 4 -8 -4 9 -9 17 -9 33
0 12 6 27 8 33 4 7 -5 8 -3 3 6 -5 8 -3 11 6 8 8 -3 13 -11 11 -17 -1 -7 16 2
38 20 28 22 39 38 36 53 -2 12 -1 15 1 8 6 -16 25 -11 31 8 3 8 0 10 -8 5 -15
-9 -10 1 22 48 21 30 21 32 -3 14z"/>
<path d="M2505 1119 c-10 -15 3 -25 16 -12 7 7 7 13 1 17 -6 3 -14 1 -17 -5z"/>
<path d="M2299 1100 c-13 -10 -19 -19 -13 -20 7 0 22 9 35 20 13 10 19 19 13
20 -7 0 -22 -9 -35 -20z"/>
<path d="M2158 912 c9 -11 21 -17 25 -15 11 7 -13 33 -29 33 -11 0 -10 -5 4
-18z"/>
<path d="M1565 880 c-3 -5 -1 -10 4 -10 6 0 11 5 11 10 0 6 -2 10 -4 10 -3 0
-8 -4 -11 -10z"/>
<path d="M2080 870 c0 -6 7 -10 15 -10 8 0 15 2 15 4 0 2 -7 6 -15 10 -8 3
-15 1 -15 -4z"/>
<path d="M2510 869 c-57 -23 -86 -78 -62 -116 11 -18 61 -34 86 -27 14 3 27
-1 36 -11 11 -14 10 -17 -8 -22 -15 -3 -22 -13 -22 -29 0 -28 10 -30 55 -9 37
18 58 56 49 90 -6 23 -45 46 -74 43 -39 -3 -60 3 -60 18 0 9 9 18 20 21 13 3
20 14 20 29 0 26 -3 27 -40 13z"/>
<path d="M2005 840 c3 -6 -4 -14 -17 -19 l-23 -10 23 0 c12 -1 22 4 22 9 0 6
8 10 18 10 14 0 15 2 2 10 -20 13 -33 13 -25 0z"/>
<path d="M1608 833 c7 -3 16 -2 19 1 4 3 -2 6 -13 5 -11 0 -14 -3 -6 -6z"/>
<path d="M1155 765 c-28 -28 -30 -40 -10 -75 16 -29 20 -70 5 -70 -5 0 -13 7
-18 16 -6 11 -16 14 -30 9 -20 -6 -21 -8 -7 -34 16 -33 64 -56 95 -46 11 4 27
17 35 29 13 20 13 27 -1 64 -16 40 -14 72 5 72 5 0 12 -9 16 -20 5 -16 10 -18
31 -8 30 14 30 19 2 45 -54 49 -88 54 -123 18z"/>
<path d="M2249 717 c-62 -30 -66 -34 -56 -54 11 -24 31 -30 42 -12 13 19 27 3
55 -61 24 -56 31 -65 51 -62 39 4 41 16 10 88 -27 63 -28 70 -13 78 25 13 24
13 17 35 -9 28 -27 26 -106 -12z"/>
<path d="M1375 688 c-2 -7 -15 -52 -28 -101 l-25 -87 32 -8 c27 -8 32 -6 39
14 7 19 17 24 55 26 40 3 48 7 65 36 28 48 17 75 -45 106 -57 28 -86 33 -93
14z m83 -76 c2 -13 -3 -25 -13 -28 -22 -9 -27 -1 -19 30 7 31 28 29 32 -2z"/>
<path d="M1956 637 c-18 -13 -18 -19 -5 -108 l15 -94 29 0 c28 0 30 3 28 34
l-1 33 32 -31 c38 -37 43 -38 68 -9 18 22 18 22 -8 43 -19 15 -24 24 -16 29
21 13 14 71 -11 94 -27 26 -102 30 -131 9z m81 -53 c3 -8 1 -20 -6 -27 -13
-13 -16 -10 -25 21 -6 16 -3 22 9 22 8 0 18 -7 22 -16z"/>
<path d="M1669 595 c-41 -27 -49 -42 -49 -92 0 -49 45 -93 95 -93 121 0 178
125 86 187 -44 30 -87 29 -132 -2z m95 -51 c9 -8 16 -22 16 -29 0 -41 -71 -61
-90 -25 -25 46 37 91 74 54z"/>
</g>
</svg>
