<?xml version="1.0" standalone="no"?>
<!DOCTYPE svg PUBLIC "-//W3C//DTD SVG 20010904//EN"
 "http://www.w3.org/TR/2001/REC-SVG-20010904/DTD/svg10.dtd">
<svg version="1.0" xmlns="http://www.w3.org/2000/svg"
 width="738.000000pt" height="1600.000000pt" viewBox="0 0 738.000000 1600.000000"
 preserveAspectRatio="xMidYMid meet">

<g transform="translate(0.000000,1600.000000) scale(0.100000,-0.100000)"
fill="#000000" stroke="none">
<path d="M0 8000 l0 -8000 3690 0 3690 0 0 2150 0 2150 -52 1 c-30 1 -40 4
-23 6 17 2 40 6 53 8 l22 5 0 3678 c0 2847 -3 3681 -12 3690 -9 9 -9 12 0 12
9 0 12 484 12 2150 l0 2150 -3690 0 -3690 0 0 -8000z m3935 2330 c930 -67
1723 -639 2078 -1500 113 -275 165 -529 174 -848 6 -204 -4 -338 -38 -522
-115 -613 -470 -1165 -984 -1526 -560 -394 -1217 -527 -1915 -388 -180 36
-455 138 -629 233 -41 23 -78 41 -82 41 -5 0 -9 3 -9 8 0 4 -23 20 -50 35 -53
30 -228 157 -289 210 -101 89 -250 245 -321 337 -19 25 -37 47 -41 50 -3 3
-22 30 -42 60 -51 80 -83 120 -89 114 -4 -3 -9 0 -14 7 -4 8 -3 10 4 5 20 -12
14 4 -31 83 -50 87 -121 234 -132 271 -4 14 -15 43 -25 65 -11 22 -29 76 -42
120 -12 44 -25 82 -28 85 -3 3 -6 14 -7 25 -1 11 -6 38 -12 60 -16 60 -51 284
-51 331 0 22 -4 44 -8 50 -10 12 3 419 17 504 24 151 34 198 67 320 37 136 94
290 144 392 17 34 28 68 25 75 -2 8 0 11 5 8 5 -3 20 16 32 42 13 26 26 50 29
53 5 5 73 112 95 151 30 52 184 236 281 334 450 457 1035 707 1693 723 30 1
118 -3 195 -8z m-2181 -855 c-4 -8 -11 -15 -16 -15 -6 0 -5 6 2 15 7 8 14 15
16 15 2 0 1 -7 -2 -15z m-118 -163 c-17 -16 -18 -16 -5 5 7 12 15 20 18 17 3
-2 -3 -12 -13 -22z m55 -69 c-12 -20 -14 -14 -5 12 4 9 9 14 11 11 3 -2 0 -13
-6 -23z m29 -3 c-6 -11 -13 -20 -16 -20 -2 0 0 9 6 20 6 11 13 20 16 20 2 0 0
-9 -6 -20z m-164 -62 c-18 -26 -22 -17 -5 14 6 11 13 17 16 15 3 -3 -2 -16
-11 -29z m74 -89 c0 -6 -4 -7 -10 -4 -5 3 -10 11 -10 16 0 6 5 7 10 4 6 -3 10
-11 10 -16z m-136 -28 c-9 -18 -18 -30 -21 -28 -2 3 3 19 12 37 9 18 18 30 21
28 2 -3 -3 -19 -12 -37z m23 -13 c-3 -8 -6 -5 -6 6 -1 11 2 17 5 13 3 -3 4
-12 1 -19z m44 -31 c-10 -9 -11 -8 -5 6 3 10 9 15 12 12 3 -3 0 -11 -7 -18z
m-99 -34 c-3 -16 -7 -22 -10 -15 -4 13 4 42 11 42 2 0 2 -12 -1 -27z m-26 -57
c-1 -24 -4 -40 -7 -34 -3 5 -14 -9 -23 -32 -9 -24 -19 -40 -23 -37 -4 5 47
147 53 147 0 0 0 -20 0 -44z m110 -3 c-8 -15 -15 -22 -16 -15 0 17 20 55 27
49 2 -3 -2 -18 -11 -34z m-126 -113 c0 -5 -4 -10 -10 -10 -5 0 -10 5 -10 10 0
6 5 10 10 10 6 0 10 -4 10 -10z m65 -40 c-4 -12 -9 -19 -12 -17 -3 3 -2 15 2
27 4 12 9 19 12 17 3 -3 2 -15 -2 -27z m-105 -21 c0 -16 -4 -29 -10 -29 -5 0
-10 -10 -11 -22 -1 -20 -2 -19 -9 5 -9 31 6 91 21 81 5 -3 9 -18 9 -35z m67
-1 c-3 -7 -5 -2 -5 12 0 14 2 19 5 13 2 -7 2 -19 0 -25z m17 -24 c-7 -3 -10
-15 -7 -27 4 -20 3 -20 -7 -4 -12 19 -6 37 13 36 9 0 9 -2 1 -5z m-120 -70 c2
-22 4 -47 5 -56 1 -9 8 -24 17 -33 21 -21 15 -27 -9 -10 -13 9 -19 28 -20 58
-2 43 -16 44 -17 2 0 -11 -8 -29 -17 -40 -9 -12 -14 -14 -11 -5 3 8 13 41 23
73 10 31 20 56 22 53 2 -2 6 -21 7 -42z m65 -134 c0 -10 -3 -8 -9 5 -12 27
-12 43 0 25 5 -8 9 -22 9 -30z m-109 5 c0 -8 -4 -15 -10 -15 -5 0 -10 7 -10
15 0 8 5 15 10 15 6 0 10 -7 10 -15z m-23 -62 c-3 -10 -5 -4 -5 12 0 17 2 24
5 18 2 -7 2 -21 0 -30z m88 -14 c1 -19 5 -45 9 -59 5 -21 5 -22 -3 -5 -8 17
-10 15 -11 -15 -2 -19 -2 -38 -1 -42 0 -5 -3 -8 -9 -8 -5 0 -10 8 -11 18 0 14
-2 14 -9 -3 -8 -18 -9 -18 -9 5 0 14 6 34 14 44 8 11 15 37 15 58 0 33 -3 38
-22 38 -18 0 -20 2 -8 10 22 14 43 -4 45 -41z m29 13 c-4 -18 -10 -32 -15 -32
-11 0 -11 1 2 39 14 40 21 35 13 -7z m-124 -42 c0 -11 -4 -20 -9 -20 -5 0 -7
9 -4 20 3 11 7 20 9 20 2 0 4 -9 4 -20z m25 -47 c4 -40 2 -52 -10 -57 -16 -6
-19 -2 -30 47 -4 18 -2 26 4 22 6 -3 13 6 17 20 9 35 13 28 19 -32z m-48 -45
c-3 -8 -6 -5 -6 6 -1 11 2 17 5 13 3 -3 4 -12 1 -19z m10 -115 c-3 -54 -3 -88
0 -75 6 29 21 28 35 -3 12 -28 2 -48 -12 -25 -7 11 -10 0 -11 -35 -1 -29 -4
-39 -6 -22 -2 15 -9 27 -15 27 -8 0 -9 32 -5 103 4 69 3 92 -4 72 -10 -33 -14
-629 -4 -645 3 -6 2 -10 -3 -10 -21 0 -29 363 -12 568 8 100 19 142 38 142 2
0 2 -44 -1 -97z m20 -10 c-3 -10 -5 -2 -5 17 0 19 2 27 5 18 2 -10 2 -26 0
-35z m20 -30 c-3 -10 -5 -2 -5 17 0 19 2 27 5 18 2 -10 2 -26 0 -35z m43 -17
c0 -3 -4 -8 -10 -11 -5 -3 -10 -1 -10 4 0 6 5 11 10 11 6 0 10 -2 10 -4z m-53
-98 c-3 -8 -6 -5 -6 6 -1 11 2 17 5 13 3 -3 4 -12 1 -19z m20 -10 c-3 -7 -5
-2 -5 12 0 14 2 19 5 13 2 -7 2 -19 0 -25z m20 -45 c-2 -16 -4 -3 -4 27 0 30
2 43 4 28 2 -16 2 -40 0 -55z m-74 -173 c-10 -88 -19 -22 -14 105 l4 110 8
-80 c5 -44 6 -105 2 -135z m61 -67 c4 -19 3 -23 -3 -13 -12 20 -31 234 -23
262 4 13 10 -32 13 -99 4 -67 9 -134 13 -150z m-37 95 c-2 -13 -4 -3 -4 22 0
25 2 35 4 23 2 -13 2 -33 0 -45z m51 -33 c0 -38 -1 -38 -8 -10 -4 17 -8 48 -8
70 0 38 1 38 8 10 4 -16 8 -48 8 -70z m-41 -77 c-2 -13 -4 -3 -4 22 0 25 2 35
4 23 2 -13 2 -33 0 -45z m-14 -33 c3 -41 1 -62 -4 -50 -4 11 -8 47 -8 80 1 75
6 61 12 -30z m-14 -81 c15 10 21 -108 7 -148 l-13 -38 -12 45 c-14 58 -14 94
1 103 8 5 10 -4 6 -32 -3 -21 -2 -48 3 -59 5 -14 8 -2 8 37 1 31 -3 60 -9 63
-6 3 -9 40 -8 83 l2 77 3 -68 c2 -37 8 -65 12 -63z m51 61 c0 -8 5 -15 10 -15
6 0 10 5 10 12 0 6 2 9 5 7 2 -3 1 -18 -4 -35 -7 -28 -8 -28 -15 -6 -4 12 -12
22 -17 22 -5 0 -9 7 -9 15 0 8 5 15 10 15 6 0 10 -7 10 -15z m-23 -87 c-3 -7
-5 -2 -5 12 0 14 2 19 5 13 2 -7 2 -19 0 -25z m102 -216 c12 -57 20 -106 18
-108 -5 -5 -32 109 -43 176 -11 77 2 40 25 -68z m-106 58 c3 -12 1 -18 -5 -14
-7 5 -8 -6 -4 -32 5 -25 4 -35 -2 -29 -15 15 -24 65 -12 65 5 0 10 7 10 15 0
21 7 19 13 -5z m37 -29 c0 -22 -16 -36 -24 -22 -8 12 3 41 15 41 5 0 9 -9 9
-19z m39 -18 c6 -21 11 -45 11 -53 0 -29 -20 13 -21 45 -2 30 -2 30 -9 -5 l-7
-35 -2 43 c-1 52 14 55 28 5z m-56 -105 c3 -35 13 -80 21 -100 9 -21 16 -45
15 -55 -1 -21 -68 174 -69 200 0 9 6 17 14 17 9 0 15 -19 19 -62z m27 -30 c0
-9 4 -8 10 2 9 13 10 13 9 0 -1 -8 -5 -26 -9 -40 l-8 -25 -1 26 c-1 14 -6 30
-13 37 -9 9 -9 12 0 12 7 0 12 -6 12 -12z m80 -28 c0 -5 -5 -10 -11 -10 -5 0
-7 5 -4 10 3 6 8 10 11 10 2 0 4 -4 4 -10z m27 -36 c-3 -3 -12 -4 -19 -1 -8 3
-5 6 6 6 11 1 17 -2 13 -5z m28 -103 c-3 -2 -5 1 -5 8 0 7 -3 10 -7 8 -5 -3
-9 11 -10 31 l-2 37 14 -40 c8 -21 12 -41 10 -44z m-105 -25 c0 -12 -5 -7 -19
24 -11 24 -11 24 3 6 9 -11 16 -24 16 -30z m97 -8 c-3 -8 -6 -5 -6 6 -1 11 2
17 5 13 3 -3 4 -12 1 -19z m33 -23 c0 -5 -5 -3 -10 5 -5 8 -10 20 -10 25 0 6
5 3 10 -5 5 -8 10 -19 10 -25z m-95 -56 c12 -36 20 -47 26 -38 7 12 9 11 9 -1
0 -8 -4 -21 -8 -28 -6 -8 -17 10 -34 53 -15 36 -22 65 -18 65 5 0 16 -23 25
-51z m22 -1 c-3 -8 -6 -5 -6 6 -1 11 2 17 5 13 3 -3 4 -12 1 -19z m125 -100
c-8 -8 -9 -4 -5 13 4 13 8 18 11 10 2 -7 -1 -18 -6 -23z m15 -30 c-3 -8 -6 -5
-6 6 -1 11 2 17 5 13 3 -3 4 -12 1 -19z m-69 -29 c-3 -8 -7 -3 -11 10 -4 17
-3 21 5 13 5 -5 8 -16 6 -23z m-33 11 c3 -5 1 -10 -4 -10 -6 0 -11 5 -11 10 0
6 2 10 4 10 3 0 8 -4 11 -10z m55 -105 c-1 -5 -12 8 -25 30 -14 22 -25 45 -25
50 1 6 12 -8 25 -30 14 -22 25 -44 25 -50z m114 15 l7 -25 -15 25 c-17 28 -21
50 -7 35 5 -6 12 -21 15 -35z m-74 -74 c0 -8 3 -23 6 -33 3 -10 -2 -7 -10 7
-18 30 -20 40 -6 40 6 0 10 -6 10 -14z m124 -222 c3 -8 2 -12 -4 -9 -6 3 -10
10 -10 16 0 14 7 11 14 -7z m40 -49 c9 -14 15 -25 13 -25 -2 0 -13 11 -25 25
-12 14 -18 25 -13 25 5 0 16 -11 25 -25z m87 -112 c13 -16 12 -17 -3 -4 -17
13 -22 21 -14 21 2 0 10 -8 17 -17z m120 -140 c13 -16 12 -17 -3 -4 -10 7 -18
15 -18 17 0 8 8 3 21 -13z"/>
<path d="M3546 10142 c-3 -5 -6 -148 -6 -318 l-2 -309 56 -3 56 -3 0 211 c0
204 10 263 24 143 7 -60 43 -291 51 -330 5 -20 11 -23 60 -23 49 0 55 2 59 23
3 12 15 81 27 152 45 274 47 276 48 38 l1 -213 55 0 55 0 0 148 c0 82 3 224 7
315 l6 167 -101 0 c-75 0 -102 -3 -102 -12 0 -7 -11 -85 -25 -173 -13 -88 -25
-164 -25 -169 0 -5 -2 -7 -5 -5 -2 3 -14 81 -25 175 -11 93 -23 175 -25 182
-5 14 -180 18 -189 4z"/>
<path d="M3137 10062 l-48 -16 7 -55 c3 -31 10 -76 15 -100 5 -24 8 -45 7 -47
-2 -2 -23 36 -48 84 -24 48 -45 89 -46 91 -6 7 -106 -24 -110 -34 -3 -6 44
-91 102 -190 82 -137 115 -202 140 -279 18 -56 36 -100 41 -99 25 6 98 27 101
29 2 1 -10 47 -27 102 -26 82 -34 134 -46 288 -8 104 -15 201 -15 217 0 31 -6
32 -73 9z"/>
<path d="M4296 9773 c-55 -159 -101 -293 -103 -299 -4 -11 74 -44 103 -44 7 0
25 37 40 83 15 45 33 96 40 113 l13 31 52 -13 c62 -16 104 -3 138 44 33 46 61
138 61 198 0 75 -28 103 -144 143 -49 17 -92 31 -95 31 -4 0 -51 -129 -105
-287z m214 122 c10 -13 11 -24 1 -58 -15 -50 -37 -77 -63 -77 -23 0 -23 12 3
88 21 63 36 75 59 47z"/>
<path d="M4907 9762 c-79 -123 -276 -447 -282 -462 -3 -10 9 -24 40 -43 25
-15 49 -27 53 -27 4 0 33 44 65 98 32 53 98 162 148 242 135 219 127 192 68
229 l-50 31 -42 -68z"/>
<path d="M2502 9779 c-28 -17 -52 -32 -52 -34 0 -2 36 -63 81 -136 44 -72 117
-191 161 -265 44 -74 84 -134 89 -134 15 0 209 122 209 131 0 15 -44 79 -55
79 -5 0 -30 -14 -55 -30 -54 -37 -31 -61 -197 210 -69 113 -126 206 -127 207
-1 1 -25 -12 -54 -28z"/>
<path d="M5242 9513 c-44 -22 -300 -289 -319 -333 -27 -64 -2 -129 71 -181 73
-54 140 -36 230 62 l47 51 -46 42 -45 43 -54 -54 c-55 -56 -86 -63 -86 -19 1
28 255 288 278 284 32 -6 25 -39 -19 -84 l-43 -44 44 -45 44 -45 44 42 c47 46
82 105 82 138 0 33 -36 94 -75 128 -41 37 -98 43 -153 15z"/>
<path d="M2146 9480 c-41 -13 -93 -66 -112 -116 -25 -67 -11 -94 124 -227 151
-149 195 -184 244 -197 35 -10 46 -8 86 12 26 13 57 38 70 57 61 92 45 130
-124 294 -181 176 -217 198 -288 177z m178 -246 c74 -69 137 -132 139 -138 9
-22 -9 -39 -34 -32 -30 8 -279 247 -279 268 0 18 9 28 27 28 7 0 74 -57 147
-126z"/>
<path d="M3620 9434 c-14 -2 -59 -9 -100 -15 -213 -31 -467 -129 -629 -243
-24 -17 -60 -42 -79 -55 -70 -47 -277 -265 -341 -359 -108 -160 -210 -393
-240 -552 -6 -30 -15 -79 -21 -108 -15 -80 -12 -383 5 -477 8 -44 14 -86 15
-92 0 -25 20 -13 20 12 0 14 -4 25 -8 25 -4 0 -8 8 -9 18 0 9 -4 42 -8 72 -12
89 3 53 25 -61 23 -122 23 -119 9 -119 -6 0 -8 9 -4 21 5 15 4 19 -4 15 -6 -4
-11 -14 -11 -23 0 -28 61 -194 107 -293 95 -205 295 -455 447 -559 12 -8 23
-18 26 -21 16 -20 150 -101 250 -152 101 -51 208 -91 320 -120 203 -51 550
-51 740 1 302 82 530 211 735 417 228 230 366 490 430 811 30 150 34 390 10
538 -58 354 -222 662 -482 905 -279 261 -635 405 -1023 415 -85 2 -166 2 -180
-1z m401 -70 c199 -33 444 -137 617 -261 191 -137 363 -337 466 -541 186 -370
215 -788 82 -1185 -70 -210 -188 -398 -356 -568 -215 -217 -456 -351 -755
-420 -115 -26 -395 -37 -516 -20 -108 15 -281 58 -339 83 -233 102 -366 187
-509 323 -87 83 -221 242 -221 261 0 5 -12 23 -26 39 -15 18 -23 23 -20 12 4
-11 2 -16 -5 -12 -6 4 -8 14 -5 22 3 8 -18 65 -48 126 -49 105 -97 251 -128
392 -17 81 -17 419 0 505 23 114 33 153 64 245 31 92 113 266 150 315 12 17
17 33 13 41 -5 8 -4 10 3 5 7 -4 21 9 35 31 60 94 245 275 374 366 196 138
481 238 743 261 80 7 285 -4 381 -20z m-1517 -608 c-3 -9 -10 -13 -15 -10 -5
3 -3 11 4 19 15 16 19 13 11 -9z m-34 -36 c0 -5 -5 -10 -11 -10 -5 0 -7 5 -4
10 3 6 8 10 11 10 2 0 4 -4 4 -10z m-29 -43 c-10 -9 -11 -8 -5 6 3 10 9 15 12
12 3 -3 0 -11 -7 -18z m-18 -54 c-24 -40 -26 -41 -18 -13 6 21 21 39 33 40 1
0 -5 -12 -15 -27z m-47 -61 c-17 -16 -18 -16 -5 5 7 12 15 20 18 17 3 -2 -3
-12 -13 -22z m-6 -42 c0 -5 -4 -10 -10 -10 -5 0 -10 5 -10 10 0 6 5 10 10 10
6 0 10 -4 10 -10z m-33 -62 c-3 -7 -5 -2 -5 12 0 14 2 19 5 13 2 -7 2 -19 0
-25z m-7 -24 c0 -3 -7 -12 -15 -20 -16 -17 -18 -14 -9 10 6 15 24 23 24 10z
m-34 -90 c-8 -22 -17 -48 -20 -59 -3 -11 -4 -4 -2 15 5 41 24 95 32 88 3 -3
-2 -23 -10 -44z m-31 -111 c-2 -10 -11 -47 -19 -83 -20 -87 -29 -261 -18 -337
5 -34 5 -60 1 -57 -4 2 -9 -4 -11 -13 -2 -10 -5 41 -6 112 -2 109 6 226 21
295 11 52 20 86 24 93 7 13 11 8 8 -10z m23 -838 c0 -16 -2 -15 -8 5 -4 14 -8
36 -8 50 0 22 1 22 8 -5 4 -16 8 -39 8 -50z m25 -50 c5 -28 4 -34 -3 -20 -8
19 -14 73 -6 64 2 -2 6 -22 9 -44z m37 -81 c0 -8 11 -37 25 -64 14 -27 25 -53
25 -57 -1 -4 -15 19 -32 52 -18 33 -31 66 -29 74 1 8 -2 10 -10 5 -8 -4 -10
-3 -5 5 9 14 26 5 26 -15z m75 -144 c3 -5 1 -10 -4 -10 -6 0 -11 5 -11 10 0 6
2 10 4 10 3 0 8 -4 11 -10z m69 -126 c3 -8 2 -12 -4 -9 -6 3 -10 10 -10 16 0
14 7 11 14 -7z m31 -34 c3 -5 1 -10 -4 -10 -6 0 -11 5 -11 10 0 6 2 10 4 10 3
0 8 -4 11 -10z m40 -50 c3 -5 1 -10 -4 -10 -6 0 -11 5 -11 10 0 6 2 10 4 10 3
0 8 -4 11 -10z m65 -80 c0 -5 -2 -10 -4 -10 -3 0 -8 5 -11 10 -3 6 -1 10 4 10
6 0 11 -4 11 -10z"/>
<path d="M1681 8244 c-131 -35 -209 -145 -199 -281 12 -165 121 -263 290 -263
104 0 192 63 244 174 48 102 21 218 -70 304 -38 36 -69 55 -106 66 -64 19 -88
19 -159 0z m59 -114 l0 -70 -35 0 c-21 0 -38 6 -41 14 -10 26 43 126 68 126 4
0 8 -31 8 -70z m90 20 c11 -22 20 -51 20 -65 0 -22 -4 -25 -35 -25 l-35 0 0
54 c0 95 15 105 50 36z m-200 -17 c-20 -54 -28 -59 -55 -39 -19 14 -19 16 14
50 49 51 63 47 41 -11z m289 21 c34 -28 40 -58 15 -68 -27 -10 -33 -7 -42 27
-6 17 -13 40 -17 50 -10 25 9 21 44 -9z m-335 -110 c12 -5 16 -20 16 -60 0
-30 -2 -54 -5 -54 -3 0 -21 7 -40 14 -29 12 -35 20 -35 45 0 56 19 72 64 55z
m407 -21 c5 -14 8 -33 7 -42 -4 -19 -64 -55 -78 -46 -17 11 -11 61 11 89 26
33 47 33 60 -1z m-263 -22 c19 -11 11 -81 -10 -94 -12 -8 -24 -7 -42 1 -22 10
-26 18 -26 57 0 44 1 45 33 45 17 0 38 -4 45 -9z m142 -25 c0 -19 -8 -44 -19
-57 -16 -21 -22 -22 -45 -11 -21 10 -26 18 -26 50 0 48 4 52 52 52 37 0 38 -1
38 -34z m-263 -108 c14 -11 37 -77 30 -84 -9 -10 -33 9 -64 50 -18 24 -33 46
-33 51 0 9 51 -3 67 -17z m363 7 c0 -16 -67 -95 -81 -95 -15 0 -10 44 7 68 14
21 45 40 67 41 4 1 7 -6 7 -14z m-234 -39 c7 -31 2 -69 -12 -73 -10 -3 -54 65
-54 86 0 6 13 11 30 11 23 0 31 -5 36 -24z m106 -1 c-4 -24 -33 -67 -50 -73
-8 -2 -12 11 -12 41 0 51 5 59 40 55 19 -2 24 -8 22 -23z"/>
<path d="M5662 8215 c-130 -40 -206 -170 -181 -310 20 -114 87 -189 197 -221
135 -40 274 29 335 165 62 138 -27 329 -174 371 -46 14 -125 11 -177 -5z m68
-115 l0 -70 -29 0 c-36 0 -44 11 -36 48 7 35 41 92 55 92 6 0 10 -29 10 -70z
m100 14 c28 -57 24 -78 -18 -82 l-32 -3 0 70 c0 83 15 87 50 15z m-209 -19
c-18 -41 -22 -45 -41 -35 -29 16 -25 34 17 70 44 39 52 28 24 -35z m319 5 c7
-14 6 -23 -6 -34 -24 -25 -41 -5 -60 71 l-7 27 31 -23 c18 -12 37 -31 42 -41z
m-352 -93 c11 -9 18 -107 7 -107 -3 0 -21 7 -40 14 -33 14 -35 18 -35 60 0 55
24 67 68 33z m392 4 c25 -47 -3 -101 -52 -101 -27 0 -25 73 2 100 25 25 37 25
50 1z m-262 -39 c13 -13 17 -29 14 -55 -4 -34 -7 -37 -38 -37 -23 0 -37 6 -44
19 -11 22 -14 74 -3 84 13 13 53 7 71 -11z m140 -34 l-3 -53 -37 -3 -38 -3 0
46 c0 38 4 47 23 55 50 20 58 14 55 -42z m-249 -104 c20 -26 29 -74 14 -74
-19 1 -83 72 -83 92 0 19 50 6 69 -18z m361 19 c0 -8 -51 -76 -64 -85 -33 -23
-36 26 -5 66 18 23 69 38 69 19z m-256 -19 c20 -8 24 -108 4 -102 -21 7 -58
92 -45 100 15 9 21 10 41 2z m121 -31 c-7 -29 -32 -63 -47 -63 -4 0 -8 20 -8
45 0 44 1 45 31 45 29 0 31 -2 24 -27z"/>
<path d="M1778 7487 c-99 -26 -128 -46 -128 -91 1 -48 30 -76 80 -76 55 0 200
37 223 57 24 23 23 87 -3 113 -26 26 -62 25 -172 -3z m132 -52 c0 -14 -22 -22
-120 -44 -61 -14 -83 -14 -78 2 3 6 43 22 89 34 103 26 109 27 109 8z"/>
<path d="M5598 7470 c-26 -16 -41 -72 -27 -103 11 -24 53 -47 87 -47 8 0 37
14 64 31 52 31 98 36 106 10 4 -11 -3 -13 -31 -8 -33 5 -36 4 -42 -24 -9 -38
-7 -40 44 -42 53 -2 83 26 85 78 2 77 -97 106 -181 52 -42 -27 -83 -36 -83
-18 0 5 10 11 23 13 17 2 23 11 25 36 3 29 1 32 -25 32 -15 0 -36 -5 -45 -10z"/>
<path d="M1843 7311 c-78 -25 -145 -49 -148 -53 -4 -3 1 -32 11 -63 15 -46 21
-55 38 -53 17 2 21 10 19 39 l-2 36 122 40 c113 37 122 42 119 64 -1 13 -6 26
-10 30 -4 3 -71 -15 -149 -40z"/>
<path d="M5545 7318 c-22 -60 -35 -101 -33 -103 8 -6 285 -95 295 -95 14 0 48
104 39 119 -3 5 -15 11 -27 14 -16 4 -23 -1 -31 -25 -8 -24 -15 -29 -32 -24
-11 3 -27 6 -35 6 -10 0 -12 9 -7 34 5 26 3 35 -10 40 -29 11 -44 6 -44 -13 0
-26 -13 -33 -45 -25 -23 6 -25 10 -19 36 4 21 2 33 -7 39 -20 12 -39 11 -44
-3z"/>
<path d="M1934 7183 c-44 -31 -103 -67 -132 -80 -47 -20 -52 -26 -46 -46 10
-32 8 -32 71 -9 59 22 220 48 231 38 3 -3 -8 -11 -24 -18 -67 -30 -224 -120
-224 -130 0 -5 5 -18 10 -28 10 -18 13 -18 61 11 64 38 129 71 129 65 0 -2
-36 -31 -80 -65 -44 -34 -80 -65 -80 -69 0 -4 7 -16 15 -26 14 -18 17 -18 101
13 48 17 89 30 91 28 1 -2 -26 -19 -61 -37 -97 -51 -101 -55 -88 -84 l11 -25
124 67 c177 96 162 84 143 118 -31 58 -27 57 -111 25 -43 -17 -80 -29 -82 -27
-2 2 28 27 67 55 l71 52 -19 33 c-11 18 -25 50 -32 71 -12 37 -13 37 -56 31
-24 -3 -44 -4 -44 -2 0 3 16 14 35 26 31 19 33 23 23 46 -6 13 -15 24 -19 24
-4 0 -42 -25 -85 -57z"/>
<path d="M5492 7157 c-33 -35 -30 -90 6 -115 42 -29 177 -82 211 -82 33 0 58
20 67 55 12 47 1 69 -48 95 -51 27 -53 27 -63 -11 -5 -22 -2 -28 24 -39 31
-12 43 -40 18 -40 -7 0 -31 8 -53 19 -21 10 -56 25 -78 32 -35 13 -55 33 -44
45 3 2 18 0 34 -6 24 -9 31 -8 41 6 20 28 16 41 -18 53 -48 17 -73 13 -97 -12z"/>
<path d="M5426 7024 c-12 -31 -5 -41 44 -64 61 -29 58 -38 -6 -16 -26 9 -53
16 -59 16 -11 0 -40 -49 -33 -55 2 -2 64 -35 138 -74 l135 -72 17 22 c10 11
16 24 14 28 -3 4 -30 20 -60 36 -31 16 -54 30 -53 32 2 1 32 -6 67 -17 35 -11
65 -18 66 -17 22 30 26 67 5 67 -4 0 -61 29 -127 65 -65 36 -124 65 -130 65
-7 0 -15 -7 -18 -16z"/>
<path d="M5322 6839 c-18 -28 -32 -52 -30 -54 17 -15 257 -165 264 -165 5 0
24 24 43 52 32 49 32 52 15 65 -25 18 -37 16 -52 -7 -15 -24 -30 -25 -60 -4
-22 15 -22 17 -7 41 15 23 15 26 -2 39 -24 18 -31 17 -45 -6 -15 -23 -26 -25
-52 -5 -18 13 -18 16 -2 39 15 24 15 26 -6 41 -12 8 -25 15 -28 15 -3 0 -20
-23 -38 -51z"/>
<path d="M2145 6819 c-54 -38 -185 -129 -193 -135 -2 -1 4 -14 13 -28 l17 -25
53 36 54 35 24 -27 c19 -23 28 -26 54 -21 45 10 106 66 106 97 0 24 -48 109
-62 109 -3 0 -33 -19 -66 -41z m63 -56 c-4 -21 -54 -51 -65 -39 -8 8 44 56 60
56 5 0 7 -8 5 -17z"/>
<path d="M5258 6747 c-16 -23 -15 -24 108 -115 68 -51 129 -92 134 -92 8 0 30
31 30 44 0 5 -245 186 -251 186 -2 0 -11 -11 -21 -23z"/>
<path d="M2185 6634 c-66 -53 -121 -99 -122 -102 -4 -12 25 -44 36 -41 22 8
240 185 241 195 0 6 -8 18 -18 27 -17 15 -25 10 -137 -79z"/>
<path d="M5204 6675 c-12 -8 -27 -28 -34 -45 -11 -27 -10 -34 10 -63 27 -37
136 -131 174 -149 23 -10 31 -8 54 9 61 45 61 98 0 143 l-30 22 -22 -21 -21
-22 28 -24 c28 -25 35 -45 16 -45 -15 0 -143 110 -147 126 -5 19 18 17 40 -3
18 -16 20 -16 40 5 18 18 19 23 8 37 -16 19 -63 45 -82 45 -8 0 -23 -7 -34
-15z"/>
<path d="M2259 6584 c-95 -83 -109 -101 -109 -139 0 -25 8 -40 31 -59 39 -33
47 -33 97 4 48 34 50 40 22 65 -20 18 -21 18 -43 -3 -26 -25 -47 -28 -47 -8 0
15 132 136 149 136 17 0 13 -18 -9 -40 -25 -25 -25 -32 0 -55 18 -17 20 -16
50 13 38 39 40 83 5 117 -39 40 -73 33 -146 -31z"/>
<path d="M5076 6535 c-28 -26 -34 -62 -15 -97 15 -27 69 -48 127 -48 35 0 54
-5 66 -19 25 -28 0 -38 -28 -12 l-22 21 -23 -24 -22 -23 31 -27 c43 -36 81
-34 114 5 35 42 33 65 -13 110 -37 37 -41 39 -105 39 -51 0 -68 4 -73 15 -8
22 4 30 22 15 14 -11 20 -10 38 9 l22 22 -24 20 c-31 26 -63 24 -95 -6z"/>
<path d="M2425 6360 c-108 -108 -109 -109 -90 -130 17 -19 20 -19 36 -4 20 18
54 11 46 -9 -3 -6 -8 -20 -12 -29 -7 -17 27 -44 43 -34 5 3 46 60 91 126 l83
122 -33 34 c-18 19 -38 34 -44 34 -6 0 -60 -49 -120 -110z m119 28 c-24 -41
-86 -118 -94 -118 -22 0 -7 27 42 77 53 54 65 63 52 41z"/>
<path d="M4920 6393 c-33 -12 -60 -47 -60 -77 -1 -28 -2 -29 -14 -13 -18 23
-24 22 -84 -19 -44 -29 -51 -38 -41 -50 6 -8 9 -17 5 -21 -3 -3 -6 -1 -6 5 0
7 -11 12 -25 12 -29 0 -115 -40 -115 -54 0 -10 127 -257 139 -269 4 -4 20 -3
34 4 l26 12 -30 58 c-31 62 -35 79 -19 79 5 0 23 -27 40 -60 17 -33 34 -60 38
-60 5 0 17 6 27 14 19 14 19 15 -4 65 -14 28 -34 61 -45 73 -12 13 -20 26 -18
30 1 5 -4 24 -12 42 -13 32 -7 56 15 56 3 0 33 -42 64 -92 32 -51 64 -101 70
-110 10 -16 13 -16 38 1 l27 17 -70 110 c-63 99 -68 110 -52 122 14 10 19 10
27 -1 16 -21 46 -34 98 -42 59 -9 98 -37 79 -57 -11 -11 -16 -9 -31 11 -18 23
-19 23 -45 6 -26 -17 -26 -18 -9 -39 45 -52 77 -59 124 -25 67 47 12 150 -86
164 -71 10 -85 15 -85 31 0 16 27 19 32 4 4 -14 48 18 48 35 0 12 -50 47 -62
44 -2 0 -10 -3 -18 -6z m-216 -274 c-9 -15 -23 -10 -34 11 -17 32 0 47 22 21
10 -13 15 -27 12 -32z"/>
<path d="M2645 6348 c-24 -14 -32 -24 -95 -115 -57 -83 -63 -117 -25 -153 38
-35 81 -31 116 11 34 41 36 55 7 70 -19 10 -25 8 -44 -15 -24 -27 -44 -34 -44
-15 0 11 52 89 83 123 9 11 17 23 17 28 0 4 7 8 15 8 19 0 19 -15 0 -44 -15
-22 -14 -24 9 -39 22 -15 25 -15 39 1 23 25 37 67 30 91 -5 19 -60 61 -79 61
-5 0 -18 -6 -29 -12z"/>
<path d="M2722 6154 c-46 -64 -86 -122 -88 -129 -3 -7 4 -19 16 -25 17 -9 25
-8 39 4 27 25 52 11 40 -21 -5 -14 -8 -27 -7 -28 2 -1 13 -8 26 -14 21 -11 24
-8 61 71 74 162 94 208 90 211 -18 14 -78 47 -85 47 -5 0 -46 -52 -92 -116z
m73 -34 c-16 -33 -35 -60 -42 -60 -7 0 -13 3 -13 7 0 11 74 122 79 117 3 -2
-8 -31 -24 -64z"/>
<path d="M2869 6056 l-66 -144 44 -21 c24 -11 54 -21 68 -21 22 0 75 44 75 63
0 4 16 43 36 87 46 100 42 120 -26 155 -27 14 -53 25 -57 25 -5 0 -38 -65 -74
-144z m121 52 c0 -26 -74 -178 -87 -178 -19 0 -17 9 27 104 35 77 60 107 60
74z"/>
<path d="M4462 6127 c-12 -13 -22 -34 -22 -48 0 -29 56 -173 82 -211 39 -56
138 -25 138 41 0 28 -59 178 -85 217 -21 33 -83 33 -113 1z m102 -127 c41
-103 40 -100 22 -100 -7 0 -29 38 -50 88 -41 97 -42 102 -22 102 8 0 29 -37
50 -90z"/>
<path d="M3041 5984 c-29 -81 -49 -150 -44 -154 10 -10 113 -43 118 -38 2 1 6
15 10 31 5 20 3 27 -7 27 -8 0 -22 6 -32 13 -14 10 -15 17 -6 41 9 26 14 28
45 22 20 -4 35 -3 35 3 0 5 3 16 6 25 4 10 -3 19 -20 27 -27 12 -33 33 -17 58
7 11 15 11 39 3 28 -10 31 -8 37 15 3 14 3 28 0 31 -6 6 -96 42 -105 42 -3 0
-30 -66 -59 -146z"/>
<path d="M4303 6077 c-18 -7 -33 -16 -34 -20 -1 -4 18 -73 42 -152 44 -146 52
-158 88 -136 12 8 13 16 2 53 -7 24 -14 50 -17 59 -3 11 5 20 25 29 17 7 33
21 37 32 8 28 -3 77 -26 116 -16 26 -26 32 -52 31 -18 0 -48 -6 -65 -12z m73
-72 c3 -14 3 -33 -1 -42 -5 -15 -7 -16 -14 -3 -5 8 -11 27 -15 43 -5 20 -3 27
9 27 8 0 17 -11 21 -25z"/>
<path d="M3187 5928 c-38 -156 -38 -167 4 -168 11 0 21 26 39 100 12 55 24 99
26 98 1 -2 -1 -49 -4 -106 -4 -57 -5 -105 -3 -108 2 -2 16 -4 30 -4 24 0 30 9
61 89 19 50 36 88 38 86 3 -2 -6 -45 -18 -95 -12 -50 -21 -92 -19 -94 2 -2 15
-6 28 -8 24 -3 26 2 61 142 33 127 38 141 46 115 4 -16 8 -85 9 -152 l0 -123
27 0 c24 0 28 5 33 38 4 31 55 194 80 255 7 16 3 18 -26 15 -29 -3 -35 -8 -44
-40 -15 -56 -25 -57 -25 -1 l0 50 -75 13 c-45 8 -79 9 -84 4 -4 -5 -20 -42
-35 -81 -15 -40 -30 -73 -32 -73 -3 0 -3 20 0 45 19 149 22 133 -21 144 -21 6
-43 11 -49 11 -6 0 -27 -68 -47 -152z"/>
<path d="M4133 6024 c-21 -21 -24 -32 -20 -62 6 -37 15 -46 91 -105 25 -19 36
-35 34 -48 -5 -30 -23 -27 -26 4 -3 20 -9 27 -25 27 -41 0 -49 -12 -34 -56 17
-50 50 -67 99 -53 44 11 61 48 48 103 -10 46 -23 61 -76 92 -41 24 -59 46 -47
58 11 11 23 6 23 -9 0 -16 12 -18 48 -9 17 5 21 11 16 28 -16 57 -87 74 -131
30z"/>
<path d="M3902 6001 c-11 -6 -11 -34 -1 -154 6 -80 15 -150 18 -155 3 -6 19
-8 34 -5 l28 5 -7 74 -7 74 33 0 c25 0 31 3 26 16 -3 9 -6 22 -6 30 0 9 -11
14 -30 14 -25 0 -30 4 -30 25 0 21 5 25 30 25 27 0 30 3 30 30 0 30 -1 30 -52
30 -29 0 -59 -4 -66 -9z"/>
<path d="M3737 5982 c-24 -26 -25 -247 -1 -280 20 -29 85 -31 114 -2 18 18 20
33 20 143 0 107 -2 126 -18 140 -26 23 -94 22 -115 -1z m73 -143 c0 -81 -3
-99 -15 -99 -12 0 -15 18 -15 98 0 54 3 102 6 105 17 17 24 -13 24 -104z"/>
</g>
</svg>
